<?xml version="1.0" encoding="utf-8"?>
<!-- Generator: Adobe Illustrator 25.4.1, SVG Export Plug-In . SVG Version: 6.00 Build 0)  -->
<svg version="1.1" id="Layer_1" xmlns="http://www.w3.org/2000/svg" xmlns:xlink="http://www.w3.org/1999/xlink" x="0px" y="0px"
	 viewBox="0 0 1200 360" style="enable-background:new 0 0 1200 360;" xml:space="preserve">
<style type="text/css">
	.st0{fill:url(#SVGID_1_);}
	.st1{opacity:0.6;fill:none;stroke:#12384E;stroke-width:1.5;enable-background:new    ;}
	.st2{opacity:0.5;fill:none;stroke:#12384E;stroke-width:1.5;enable-background:new    ;}
	.st3{fill:#FABD32;}
	.st4{enable-background:new    ;}
	.st5{fill:#6BA7FF;}
	.st6{fill:#FFFFFF;}
	.st7{fill:#C3DCE6;}
	.st8{fill:#9FC3D4;}
	.st9{fill:#12384E;}
	.st10{fill:#07141D;stroke:#1B4A64;stroke-width:20;}
	.st11{fill:none;stroke:#FABD32;stroke-width:20;stroke-linecap:round;}
	.st12{font-family:'CourierNewPS-BoldMT';}
	.st13{font-size:52px;}
</style>
<desc  id="hero-desc">
	NetShecan — a desktop monitor that shows your remaining, used and total data for Irancell, Shatel and MCI, and keeps itself logged in automatically.
	</desc>
<linearGradient id="SVGID_1_" gradientUnits="userSpaceOnUse" x1="178.8508" y1="477.9506" x2="179.8508" y2="476.9506" gradientTransform="matrix(1200 0 0 -360 -214621 172062.2031)">
	<stop  offset="0" style="stop-color:#0B2432"/>
	<stop  offset="1" style="stop-color:#07141D"/>
</linearGradient>
<path class="st0" d="M28,0h1144c15.5,0,28,12.5,28,28v304c0,15.5-12.5,28-28,28H28c-15.5,0-28-12.5-28-28V28C0,12.5,12.5,0,28,0z"/>
<circle class="st1" cx="1030" cy="40" r="150"/>
<circle class="st2" cx="1030" cy="40" r="112"/>
<g id="title-block" transform="translate(60 40)">
	<path class="st3" d="M2,2h26c1.1,0,2,0.9,2,2l0,0c0,1.1-0.9,2-2,2H2C0.9,6,0,5.1,0,4l0,0C0,2.9,0.9,2,2,2z"/>
	<g class="st4">
		<path class="st5" d="M43.4,12V-2.3h2.9V12H43.4z"/>
		<path class="st5" d="M50,12V-2.3h6.1c1.5,0,2.6,0.1,3.3,0.4s1.2,0.7,1.7,1.4s0.6,1.4,0.6,2.3c0,1.1-0.3,2-0.9,2.7S59.2,5.5,58,5.7
			c0.6,0.4,1.1,0.8,1.5,1.2s1,1.2,1.6,2.3l1.7,2.8h-3.5l-2.1-3.1c-0.7-1.1-1.2-1.8-1.5-2.1S55.3,6.3,55,6.2S54.2,6,53.5,6h-0.6v6H50
			z M52.9,3.7h2.1c1.4,0,2.3-0.1,2.6-0.2s0.6-0.3,0.8-0.6s0.3-0.6,0.3-1.1c0-0.5-0.1-0.9-0.4-1.2s-0.6-0.5-1.1-0.6
			c-0.2,0-0.9,0-2.1,0h-2.3V3.7z"/>
		<path class="st5" d="M78.4,12h-3.1L74,8.7h-5.7L67.1,12H64l5.6-14.3h3.1L78.4,12z M73,6.3l-2-5.3l-1.9,5.3H73z"/>
		<path class="st5" d="M80.9,12V-2.3h2.8l5.9,9.6v-9.6h2.7V12h-2.9l-5.8-9.3V12H80.9z"/>
		<path class="st5" d="M96.3,12V-2.3h2.9V12H96.3z"/>
		<path class="st5" d="M115.8,12h-3.1l-1.2-3.3h-5.7l-1.2,3.3h-3.1L107-2.3h3.1L115.8,12z M110.5,6.3l-2-5.3l-1.9,5.3H110.5z"/>
		<path class="st5" d="M118.4,12V-2.3h2.8l5.9,9.6v-9.6h2.7V12h-2.9l-5.8-9.3V12H118.4z"/>
		<path class="st5" d="M140.4,12V-2.3h2.8l5.9,9.6v-9.6h2.7V12h-2.9l-5.8-9.3V12H140.4z"/>
		<path class="st5" d="M155.8,12V-2.3h10.6v2.4h-7.7v3.2h7.2v2.4h-7.2v3.9h8V12H155.8z"/>
		<path class="st5" d="M173.3,12V0.1h-4.2v-2.4h11.4v2.4h-4.2V12H173.3z"/>
		<path class="st5" d="M185.4,12L182-2.3h3l2.2,9.8l2.6-9.8h3.4l2.5,10l2.2-10h2.9L197.3,12h-3.1l-2.9-10.7L188.5,12H185.4z"/>
		<path class="st5" d="M202.6,4.9c0-1.5,0.2-2.7,0.7-3.7c0.3-0.7,0.8-1.4,1.3-2s1.2-1,1.9-1.3c0.9-0.4,1.9-0.6,3.1-0.6
			c2.1,0,3.8,0.7,5.1,2s1.9,3.1,1.9,5.5c0,2.3-0.6,4.1-1.9,5.4s-2.9,2-5,2c-2.1,0-3.8-0.6-5.1-1.9S202.6,7.2,202.6,4.9z M205.6,4.8
			c0,1.6,0.4,2.8,1.1,3.7s1.7,1.3,2.9,1.3s2.1-0.4,2.8-1.2s1.1-2.1,1.1-3.7c0-1.6-0.4-2.9-1.1-3.7s-1.7-1.2-2.9-1.2
			s-2.2,0.4-2.9,1.2S205.6,3.2,205.6,4.8z"/>
		<path class="st5" d="M219.8,12V-2.3h6.1c1.5,0,2.6,0.1,3.3,0.4s1.2,0.7,1.7,1.4s0.6,1.4,0.6,2.3c0,1.1-0.3,2-0.9,2.7
			s-1.6,1.1-2.8,1.3c0.6,0.4,1.1,0.8,1.5,1.2s1,1.2,1.6,2.3l1.7,2.8h-3.5l-2.1-3.1c-0.7-1.1-1.2-1.8-1.5-2.1s-0.6-0.5-0.9-0.6
			S223.9,6,223.3,6h-0.6v6H219.8z M222.7,3.7h2.1c1.4,0,2.3-0.1,2.6-0.2s0.6-0.3,0.8-0.6s0.3-0.6,0.3-1.1c0-0.5-0.1-0.9-0.4-1.2
			s-0.6-0.5-1.1-0.6c-0.2,0-0.9,0-2.1,0h-2.3V3.7z"/>
		<path class="st5" d="M235.3,12V-2.3h2.9V4l5.8-6.4h3.9l-5.4,5.6l5.7,8.7h-3.7l-3.9-6.7l-2.3,2.4V12H235.3z"/>
		<path class="st5" d="M257.2-2.3h5.3c1.2,0,2.1,0.1,2.7,0.3c0.8,0.2,1.6,0.7,2.2,1.3s1.1,1.4,1.4,2.3s0.5,2,0.5,3.4
			c0,1.2-0.1,2.2-0.4,3c-0.4,1-0.9,1.9-1.5,2.5c-0.5,0.5-1.2,0.9-2,1.1c-0.6,0.2-1.5,0.3-2.6,0.3h-5.4V-2.3z M260.1,0.1v9.5h2.2
			c0.8,0,1.4,0,1.7-0.1c0.5-0.1,0.9-0.3,1.2-0.6s0.6-0.7,0.8-1.4s0.3-1.5,0.3-2.6s-0.1-2-0.3-2.5s-0.5-1.1-0.8-1.4s-0.8-0.6-1.3-0.7
			c-0.4-0.1-1.2-0.1-2.4-0.1H260.1z"/>
		<path class="st5" d="M285.6,12h-3.1l-1.2-3.3h-5.7l-1.2,3.3h-3.1l5.6-14.3h3.1L285.6,12z M280.2,6.3l-2-5.3l-1.9,5.3H280.2z"/>
		<path class="st5" d="M291.3,12V0.1h-4.2v-2.4h11.4v2.4h-4.2V12H291.3z"/>
		<path class="st5" d="M314.2,12h-3.1l-1.2-3.3h-5.7l-1.2,3.3h-3.1l5.6-14.3h3.1L314.2,12z M308.9,6.3l-2-5.3L305,6.3H308.9z"/>
		<path class="st5" d="M334.8,10.2c0.7,0.5,1.5,0.9,2.3,1.2l-1.1,2c-0.4-0.1-0.9-0.3-1.3-0.5c-0.1,0-0.7-0.5-1.9-1.3
			c-0.9,0.4-2,0.6-3.1,0.6c-2.2,0-3.9-0.6-5.2-1.9s-1.9-3.1-1.9-5.5c0-2.3,0.6-4.2,1.9-5.5s2.9-1.9,5.1-1.9c2.1,0,3.8,0.6,5,1.9
			s1.9,3.1,1.9,5.5c0,1.2-0.2,2.3-0.5,3.3C335.8,8.8,335.4,9.5,334.8,10.2z M332.5,8.6c0.4-0.4,0.6-1,0.8-1.6s0.3-1.3,0.3-2.1
			c0-1.7-0.4-2.9-1.1-3.7s-1.7-1.2-2.9-1.2s-2.1,0.4-2.9,1.2s-1.1,2.1-1.1,3.7c0,1.7,0.4,2.9,1.1,3.8s1.7,1.2,2.8,1.2
			c0.4,0,0.8-0.1,1.2-0.2c-0.6-0.4-1.2-0.7-1.8-0.9l0.8-1.7C330.7,7.4,331.7,7.9,332.5,8.6z"/>
		<path class="st5" d="M339.9-2.3h2.9v7.8c0,1.2,0,2,0.1,2.4c0.1,0.6,0.4,1.1,0.9,1.4s1.1,0.5,1.9,0.5c0.8,0,1.4-0.2,1.9-0.5
			s0.7-0.7,0.8-1.2s0.1-1.3,0.1-2.4v-7.9h2.9v7.5c0,1.7-0.1,2.9-0.2,3.6s-0.4,1.3-0.9,1.8s-1,0.9-1.7,1.2s-1.6,0.4-2.8,0.4
			c-1.4,0-2.4-0.2-3.1-0.5s-1.3-0.7-1.7-1.2s-0.7-1-0.8-1.6c-0.2-0.8-0.3-2-0.3-3.6V-2.3z"/>
		<path class="st5" d="M354.7,4.9c0-1.5,0.2-2.7,0.7-3.7c0.3-0.7,0.8-1.4,1.3-2s1.2-1,1.9-1.3c0.9-0.4,1.9-0.6,3.1-0.6
			c2.1,0,3.8,0.7,5.1,2s1.9,3.1,1.9,5.5c0,2.3-0.6,4.1-1.9,5.4s-2.9,2-5,2c-2.1,0-3.8-0.6-5.1-1.9S354.7,7.2,354.7,4.9z M357.7,4.8
			c0,1.6,0.4,2.8,1.1,3.7s1.7,1.3,2.9,1.3s2.1-0.4,2.8-1.2s1.1-2.1,1.1-3.7c0-1.6-0.4-2.9-1.1-3.7s-1.7-1.2-2.9-1.2
			s-2.2,0.4-2.9,1.2S357.7,3.2,357.7,4.8z"/>
		<path class="st5" d="M375.1,12V0.1h-4.2v-2.4h11.4v2.4H378V12H375.1z"/>
		<path class="st5" d="M398,12h-3.1l-1.2-3.3h-5.7l-1.2,3.3h-3.1l5.6-14.3h3.1L398,12z M392.7,6.3l-2-5.3l-1.9,5.3H392.7z"/>
		<path class="st5" d="M407.1,12V-2.3h4.3l2.6,9.8l2.6-9.8h4.3V12h-2.7V0.7L415.4,12h-2.8l-2.8-11.3V12H407.1z"/>
		<path class="st5" d="M424.2,4.9c0-1.5,0.2-2.7,0.7-3.7c0.3-0.7,0.8-1.4,1.3-2s1.2-1,1.9-1.3c0.9-0.4,1.9-0.6,3.1-0.6
			c2.1,0,3.8,0.7,5.1,2s1.9,3.1,1.9,5.5c0,2.3-0.6,4.1-1.9,5.4s-2.9,2-5,2c-2.1,0-3.8-0.6-5.1-1.9S424.2,7.2,424.2,4.9z M427.1,4.8
			c0,1.6,0.4,2.8,1.1,3.7s1.7,1.3,2.9,1.3s2.1-0.4,2.8-1.2s1.1-2.1,1.1-3.7c0-1.6-0.4-2.9-1.1-3.7s-1.7-1.2-2.9-1.2
			s-2.2,0.4-2.9,1.2S427.1,3.2,427.1,4.8z"/>
		<path class="st5" d="M441.3,12V-2.3h2.8l5.9,9.6v-9.6h2.7V12h-2.9L444,2.7V12H441.3z"/>
		<path class="st5" d="M456.7,12V-2.3h2.9V12H456.7z"/>
		<path class="st5" d="M466.5,12V0.1h-4.2v-2.4h11.4v2.4h-4.2V12H466.5z"/>
		<path class="st5" d="M475.9,4.9c0-1.5,0.2-2.7,0.7-3.7c0.3-0.7,0.8-1.4,1.3-2s1.2-1,1.9-1.3c0.9-0.4,1.9-0.6,3.1-0.6
			c2.1,0,3.8,0.7,5.1,2s1.9,3.1,1.9,5.5c0,2.3-0.6,4.1-1.9,5.4s-2.9,2-5,2c-2.1,0-3.8-0.6-5.1-1.9S475.9,7.2,475.9,4.9z M478.9,4.8
			c0,1.6,0.4,2.8,1.1,3.7s1.7,1.3,2.9,1.3s2.1-0.4,2.8-1.2s1.1-2.1,1.1-3.7c0-1.6-0.4-2.9-1.1-3.7s-1.7-1.2-2.9-1.2
			s-2.2,0.4-2.9,1.2S478.9,3.2,478.9,4.8z"/>
		<path class="st5" d="M493.1,12V-2.3h6.1c1.5,0,2.6,0.1,3.3,0.4s1.2,0.7,1.7,1.4s0.6,1.4,0.6,2.3c0,1.1-0.3,2-0.9,2.7
			s-1.6,1.1-2.8,1.3c0.6,0.4,1.1,0.8,1.5,1.2s1,1.2,1.6,2.3L506,12h-3.5l-2.1-3.1c-0.7-1.1-1.2-1.8-1.5-2.1s-0.6-0.5-0.9-0.6
			S497.2,6,496.6,6H496v6H493.1z M496,3.7h2.1c1.4,0,2.3-0.1,2.6-0.2s0.6-0.3,0.8-0.6s0.3-0.6,0.3-1.1c0-0.5-0.1-0.9-0.4-1.2
			s-0.6-0.5-1.1-0.6c-0.2,0-0.9,0-2.1,0H496V3.7z"/>
	</g>
	<g class="st4">
		<path class="st6" d="M5.3,88V36.5h10.1l21.1,34.4V36.5h9.7V88H35.8L15,54.4V88H5.3z"/>
		<path class="st6" d="M78.8,76.1l9.8,1.7c-1.3,3.6-3.3,6.4-6,8.2c-2.7,1.9-6.1,2.8-10.2,2.8c-6.5,0-11.3-2.1-14.4-6.4
			c-2.5-3.4-3.7-7.7-3.7-12.9c0-6.2,1.6-11,4.9-14.5s7.3-5.3,12.3-5.3c5.6,0,9.9,1.8,13.1,5.5c3.2,3.7,4.7,9.3,4.6,16.9H64.4
			c0.1,2.9,0.9,5.2,2.4,6.8c1.5,1.6,3.4,2.4,5.7,2.4c1.5,0,2.8-0.4,3.9-1.3S78.2,78,78.8,76.1z M79.3,66.1c-0.1-2.9-0.8-5-2.2-6.5
			S74,57.4,72,57.4c-2.2,0-3.9,0.8-5.3,2.4s-2.1,3.7-2.1,6.4H79.3z"/>
		<path class="st6" d="M114.3,50.7v7.9h-6.8v15c0,3,0.1,4.8,0.2,5.3c0.1,0.5,0.4,0.9,0.9,1.2s1,0.5,1.7,0.5c0.9,0,2.2-0.3,4-0.9
			l0.8,7.7c-2.3,1-4.9,1.5-7.8,1.5c-1.8,0-3.4-0.3-4.8-0.9c-1.4-0.6-2.5-1.4-3.1-2.3s-1.1-2.2-1.4-3.8c-0.2-1.1-0.3-3.5-0.3-7V58.5
			h-4.5v-7.9h4.5v-7.4l9.9-5.8v13.2H114.3z"/>
		<path class="st6" d="M118.6,71.2l10.1-1c0.6,3.4,1.8,5.9,3.7,7.5s4.4,2.4,7.5,2.4c3.4,0,5.9-0.7,7.6-2.1c1.7-1.4,2.5-3.1,2.5-5
			c0-1.2-0.4-2.3-1.1-3.1c-0.7-0.9-2-1.6-3.7-2.2c-1.2-0.4-4-1.2-8.3-2.2c-5.6-1.4-9.5-3.1-11.7-5.1c-3.2-2.8-4.7-6.3-4.7-10.4
			c0-2.6,0.7-5.1,2.2-7.4c1.5-2.3,3.6-4,6.4-5.2c2.8-1.2,6.2-1.8,10.1-1.8c6.5,0,11.3,1.4,14.6,4.3s5,6.6,5.2,11.4l-10.4,0.5
			c-0.4-2.6-1.4-4.6-2.9-5.7c-1.5-1.2-3.7-1.7-6.6-1.7c-3,0-5.4,0.6-7.1,1.9c-1.1,0.8-1.7,1.9-1.7,3.2c0,1.2,0.5,2.3,1.5,3.1
			c1.3,1.1,4.5,2.2,9.6,3.4s8.8,2.4,11.2,3.7s4.3,3,5.7,5.2s2.1,5,2.1,8.2c0,3-0.8,5.7-2.5,8.3c-1.6,2.6-4,4.5-7,5.7
			c-3,1.3-6.7,1.9-11.2,1.9c-6.5,0-11.5-1.5-15-4.5C121.4,81.4,119.3,77,118.6,71.2z"/>
		<path class="st6" d="M179.1,36.5v18.9c3.2-3.7,7-5.6,11.4-5.6c2.3,0,4.3,0.4,6.2,1.3s3.2,1.9,4.1,3.2c0.9,1.3,1.6,2.8,1.9,4.4
			c0.3,1.6,0.5,4.1,0.5,7.4V88h-9.9V68.3c0-3.9-0.2-6.4-0.6-7.5c-0.4-1.1-1-1.9-2-2.5s-2.1-0.9-3.6-0.9c-1.6,0-3.1,0.4-4.4,1.2
			c-1.3,0.8-2.2,2-2.8,3.6s-0.9,4-0.9,7.1V88h-9.9V36.5H179.1z"/>
		<path class="st6" d="M234.8,76.1l9.8,1.7c-1.3,3.6-3.3,6.4-6,8.2c-2.7,1.9-6.1,2.8-10.2,2.8c-6.5,0-11.3-2.1-14.4-6.4
			c-2.5-3.4-3.7-7.7-3.7-12.9c0-6.2,1.6-11,4.9-14.5s7.3-5.3,12.3-5.3c5.6,0,9.9,1.8,13.1,5.5c3.2,3.7,4.7,9.3,4.6,16.9h-24.8
			c0.1,2.9,0.9,5.2,2.4,6.8c1.5,1.6,3.4,2.4,5.7,2.4c1.5,0,2.8-0.4,3.9-1.3S234.3,78,234.8,76.1z M235.4,66.1
			c-0.1-2.9-0.8-5-2.2-6.5s-3.1-2.2-5.1-2.2c-2.2,0-3.9,0.8-5.3,2.4s-2.1,3.7-2.1,6.4H235.4z"/>
		<path class="st6" d="M285.8,61.7l-9.7,1.8c-0.3-1.9-1.1-3.4-2.2-4.4s-2.7-1.5-4.5-1.5c-2.5,0-4.4,0.8-5.9,2.5
			c-1.5,1.7-2.2,4.5-2.2,8.5c0,4.4,0.7,7.6,2.2,9.4c1.5,1.8,3.5,2.7,6,2.7c1.9,0,3.4-0.5,4.6-1.6s2-2.9,2.5-5.5l9.7,1.7
			c-1,4.5-2.9,7.8-5.8,10.1c-2.9,2.3-6.7,3.4-11.5,3.4c-5.5,0-9.8-1.7-13.1-5.2c-3.2-3.4-4.9-8.2-4.9-14.3c0-6.2,1.6-11,4.9-14.4
			c3.3-3.4,7.7-5.2,13.2-5.2c4.5,0,8.2,1,10.8,2.9C282.7,54.7,284.6,57.7,285.8,61.7z"/>
		<path class="st6" d="M300.7,62.1l-9-1.6c1-3.6,2.7-6.3,5.2-8s6.1-2.6,11-2.6c4.4,0,7.7,0.5,9.8,1.6c2.2,1,3.7,2.4,4.6,4
			s1.3,4.6,1.3,8.8l-0.1,11.5c0,3.3,0.2,5.7,0.5,7.3s0.9,3.2,1.8,5h-9.8c-0.3-0.7-0.6-1.6-0.9-2.9c-0.2-0.6-0.3-1-0.4-1.2
			c-1.7,1.6-3.5,2.9-5.4,3.7c-1.9,0.8-4,1.2-6.2,1.2c-3.8,0-6.9-1-9.1-3.1s-3.3-4.7-3.3-7.9c0-2.1,0.5-4,1.5-5.6
			c1-1.7,2.4-2.9,4.2-3.8c1.8-0.9,4.4-1.6,7.9-2.3c4.6-0.9,7.8-1.7,9.6-2.4v-1c0-1.9-0.5-3.3-1.4-4.1c-0.9-0.8-2.7-1.2-5.3-1.2
			c-1.8,0-3.1,0.3-4.1,1S301.3,60.3,300.7,62.1z M313.9,70.1c-1.3,0.4-3.3,0.9-6,1.5s-4.5,1.2-5.4,1.7c-1.3,0.9-1.9,2.1-1.9,3.5
			c0,1.4,0.5,2.6,1.5,3.6c1,1,2.3,1.5,3.9,1.5c1.8,0,3.5-0.6,5.1-1.8c1.2-0.9,2-2,2.4-3.3c0.3-0.8,0.4-2.4,0.4-4.8V70.1z"/>
		<path class="st6" d="M367.3,88h-9.9V68.9c0-4-0.2-6.6-0.6-7.8s-1.1-2.1-2.1-2.8s-2.1-1-3.4-1c-1.7,0-3.2,0.5-4.6,1.4
			c-1.4,0.9-2.3,2.2-2.8,3.7c-0.5,1.5-0.8,4.4-0.8,8.6V88h-9.9V50.7h9.2v5.5c3.3-4.2,7.4-6.3,12.3-6.3c2.2,0,4.2,0.4,6,1.2
			c1.8,0.8,3.2,1.8,4.1,3c0.9,1.2,1.6,2.6,1.9,4.1c0.4,1.5,0.5,3.8,0.5,6.6V88z"/>
	</g>
	<g class="st4">
		<path class="st7" d="M6.8,138v-7.8L0,119.4h4.4l4.4,7.4l4.3-7.4h4.3l-6.8,10.8v7.8H6.8z"/>
		<path class="st7" d="M18.4,131.1c0-1.2,0.3-2.3,0.9-3.4s1.4-2,2.5-2.5s2.3-0.9,3.6-0.9c2,0,3.7,0.7,5,2c1.3,1.3,2,3,2,5
			c0,2-0.7,3.7-2,5.1c-1.3,1.3-3,2-5,2c-1.2,0-2.4-0.3-3.5-0.8s-2-1.4-2.6-2.5C18.7,133.9,18.4,132.6,18.4,131.1z M22,131.3
			c0,1.3,0.3,2.4,1,3.1s1.4,1.1,2.3,1.1s1.7-0.4,2.3-1.1s0.9-1.7,0.9-3.1c0-1.3-0.3-2.3-0.9-3s-1.4-1.1-2.3-1.1s-1.7,0.4-2.3,1.1
			S22,129.9,22,131.3z"/>
		<path class="st7" d="M44,138v-2c-0.5,0.7-1.1,1.3-1.9,1.7s-1.6,0.6-2.5,0.6c-0.9,0-1.7-0.2-2.4-0.6s-1.2-1-1.6-1.7s-0.5-1.7-0.5-3
			v-8.5h3.6v6.2c0,1.9,0.1,3.1,0.2,3.5c0.1,0.4,0.4,0.8,0.7,1c0.3,0.2,0.8,0.4,1.3,0.4c0.6,0,1.2-0.2,1.6-0.5c0.5-0.3,0.8-0.7,1-1.2
			c0.2-0.5,0.3-1.7,0.3-3.6v-5.7h3.6V138H44z"/>
		<path class="st7" d="M54.4,138h-3.6v-13.5h3.3v1.9c0.6-0.9,1.1-1.5,1.5-1.8s1-0.4,1.5-0.4c0.8,0,1.6,0.2,2.3,0.7l-1.1,3.1
			c-0.6-0.4-1.2-0.6-1.7-0.6c-0.5,0-0.9,0.1-1.3,0.4c-0.3,0.3-0.6,0.8-0.8,1.5s-0.3,2.2-0.3,4.5V138z"/>
		<path class="st7" d="M71.7,138h-3.6v-13.5h3.3v1.9c0.6-0.9,1.1-1.5,1.5-1.8s1-0.4,1.5-0.4c0.8,0,1.6,0.2,2.3,0.7l-1.1,3.1
			c-0.6-0.4-1.2-0.6-1.7-0.6c-0.5,0-0.9,0.1-1.3,0.4c-0.3,0.3-0.6,0.8-0.8,1.5s-0.3,2.2-0.3,4.5V138z"/>
		<path class="st7" d="M86.2,133.7l3.6,0.6c-0.5,1.3-1.2,2.3-2.2,3c-1,0.7-2.2,1-3.7,1c-2.3,0-4.1-0.8-5.2-2.3
			c-0.9-1.2-1.3-2.8-1.3-4.6c0-2.2,0.6-4,1.8-5.2c1.2-1.3,2.6-1.9,4.4-1.9c2,0,3.6,0.7,4.7,2c1.2,1.3,1.7,3.4,1.7,6.1H81
			c0,1.1,0.3,1.9,0.9,2.5c0.6,0.6,1.2,0.9,2.1,0.9c0.6,0,1-0.2,1.4-0.5S86,134.4,86.2,133.7z M86.4,130.1c0-1-0.3-1.8-0.8-2.4
			c-0.5-0.5-1.1-0.8-1.9-0.8c-0.8,0-1.4,0.3-1.9,0.9s-0.8,1.3-0.7,2.3H86.4z"/>
		<path class="st7" d="M92.6,124.5h3.3v1.8c1.2-1.4,2.6-2.1,4.2-2.1c0.9,0,1.6,0.2,2.2,0.5s1.2,0.9,1.6,1.6c0.6-0.7,1.2-1.3,1.9-1.6
			s1.4-0.5,2.2-0.5c1,0,1.8,0.2,2.5,0.6c0.7,0.4,1.2,1,1.5,1.8c0.2,0.6,0.4,1.5,0.4,2.8v8.6h-3.6v-7.7c0-1.3-0.1-2.2-0.4-2.6
			c-0.3-0.5-0.8-0.8-1.5-0.8c-0.5,0-1,0.2-1.4,0.5s-0.8,0.8-1,1.3c-0.2,0.6-0.3,1.5-0.3,2.8v6.5h-3.6v-7.4c0-1.3-0.1-2.2-0.2-2.5
			s-0.3-0.7-0.6-0.9s-0.6-0.3-1.1-0.3c-0.6,0-1,0.1-1.5,0.4s-0.8,0.7-0.9,1.3s-0.3,1.5-0.3,2.8v6.6h-3.6V124.5z"/>
		<path class="st7" d="M118.7,128.6l-3.2-0.6c0.4-1.3,1-2.3,1.9-2.9s2.2-0.9,4-0.9c1.6,0,2.8,0.2,3.6,0.6c0.8,0.4,1.3,0.9,1.6,1.4
			c0.3,0.6,0.5,1.6,0.5,3.2l0,4.2c0,1.2,0.1,2.1,0.2,2.6c0.1,0.6,0.3,1.2,0.6,1.8h-3.5c-0.1-0.2-0.2-0.6-0.3-1.1
			c-0.1-0.2-0.1-0.4-0.1-0.4c-0.6,0.6-1.3,1-2,1.3s-1.4,0.4-2.2,0.4c-1.4,0-2.5-0.4-3.3-1.1s-1.2-1.7-1.2-2.9c0-0.8,0.2-1.4,0.5-2
			c0.4-0.6,0.9-1.1,1.5-1.4c0.7-0.3,1.6-0.6,2.8-0.8c1.7-0.3,2.8-0.6,3.5-0.9v-0.4c0-0.7-0.2-1.2-0.5-1.5c-0.3-0.3-1-0.4-1.9-0.4
			c-0.6,0-1.1,0.1-1.5,0.4C119.2,127.6,118.9,128,118.7,128.6z M123.4,131.5c-0.5,0.2-1.2,0.3-2.2,0.5s-1.6,0.4-1.9,0.6
			c-0.5,0.3-0.7,0.7-0.7,1.3c0,0.5,0.2,0.9,0.6,1.3s0.8,0.5,1.4,0.5c0.6,0,1.3-0.2,1.8-0.6c0.4-0.3,0.7-0.7,0.9-1.2
			c0.1-0.3,0.1-0.9,0.1-1.7V131.5z"/>
		<path class="st7" d="M130.5,122.7v-3.3h3.6v3.3H130.5z M130.5,138v-13.5h3.6V138H130.5z"/>
		<path class="st7" d="M150,138h-3.6v-6.9c0-1.5-0.1-2.4-0.2-2.8c-0.2-0.4-0.4-0.8-0.7-1s-0.8-0.4-1.2-0.4c-0.6,0-1.2,0.2-1.7,0.5
			s-0.8,0.8-1,1.3s-0.3,1.6-0.3,3.1v6.1h-3.6v-13.5h3.3v2c1.2-1.5,2.7-2.3,4.4-2.3c0.8,0,1.5,0.1,2.2,0.4c0.7,0.3,1.1,0.6,1.5,1.1
			s0.6,0.9,0.7,1.5s0.2,1.4,0.2,2.4V138z"/>
		<path class="st7" d="M153.6,122.7v-3.3h3.6v3.3H153.6z M153.6,138v-13.5h3.6V138H153.6z"/>
		<path class="st7" d="M173.1,138h-3.6v-6.9c0-1.5-0.1-2.4-0.2-2.8c-0.2-0.4-0.4-0.8-0.7-1s-0.8-0.4-1.2-0.4c-0.6,0-1.2,0.2-1.7,0.5
			s-0.8,0.8-1,1.3s-0.3,1.6-0.3,3.1v6.1h-3.6v-13.5h3.3v2c1.2-1.5,2.7-2.3,4.4-2.3c0.8,0,1.5,0.1,2.2,0.4c0.7,0.3,1.1,0.6,1.5,1.1
			s0.6,0.9,0.7,1.5s0.2,1.4,0.2,2.4V138z"/>
		<path class="st7" d="M176.4,138.9l4.1,0.5c0.1,0.5,0.2,0.8,0.5,1c0.3,0.3,0.9,0.4,1.6,0.4c0.9,0,1.6-0.1,2.1-0.4
			c0.3-0.2,0.6-0.5,0.7-0.9c0.1-0.3,0.2-0.8,0.2-1.6v-2c-1.1,1.5-2.4,2.2-4,2.2c-1.8,0-3.2-0.8-4.3-2.3c-0.8-1.2-1.2-2.7-1.2-4.5
			c0-2.3,0.5-4,1.6-5.2s2.4-1.8,4.1-1.8c1.7,0,3,0.7,4.1,2.2v-1.9h3.3v12.1c0,1.6-0.1,2.8-0.4,3.6s-0.6,1.4-1.1,1.9
			s-1.1,0.8-1.9,1.1s-1.8,0.4-3,0.4c-2.3,0-3.9-0.4-4.9-1.2c-1-0.8-1.4-1.8-1.4-3C176.3,139.2,176.3,139.1,176.4,138.9z M179.5,131
			c0,1.4,0.3,2.5,0.8,3.1c0.6,0.7,1.2,1,2.1,1c0.9,0,1.6-0.3,2.2-1c0.6-0.7,0.9-1.7,0.9-3c0-1.4-0.3-2.4-0.9-3.1s-1.3-1-2.2-1
			c-0.9,0-1.6,0.3-2.1,1C179.8,128.6,179.5,129.6,179.5,131z"/>
		<path class="st7" d="M212.2,138h-3.3v-2c-0.6,0.8-1.2,1.3-1.9,1.7c-0.7,0.4-1.5,0.6-2.3,0.6c-1.5,0-2.9-0.6-4-1.9
			c-1.1-1.2-1.7-3-1.7-5.2c0-2.3,0.5-4,1.6-5.2c1.1-1.2,2.4-1.8,4.1-1.8c1.5,0,2.8,0.6,3.9,1.9v-6.7h3.6V138z M202.6,131
			c0,1.4,0.2,2.5,0.6,3.1c0.6,0.9,1.4,1.4,2.4,1.4c0.8,0,1.5-0.3,2.1-1c0.6-0.7,0.9-1.7,0.9-3.1c0-1.5-0.3-2.7-0.8-3.3
			c-0.6-0.7-1.3-1-2.1-1c-0.8,0-1.6,0.3-2.1,1C202.9,128.6,202.6,129.6,202.6,131z"/>
		<path class="st7" d="M218.3,128.6l-3.2-0.6c0.4-1.3,1-2.3,1.9-2.9s2.2-0.9,4-0.9c1.6,0,2.8,0.2,3.6,0.6c0.8,0.4,1.3,0.9,1.6,1.4
			c0.3,0.6,0.5,1.6,0.5,3.2l0,4.2c0,1.2,0.1,2.1,0.2,2.6c0.1,0.6,0.3,1.2,0.6,1.8h-3.5c-0.1-0.2-0.2-0.6-0.3-1.1
			c-0.1-0.2-0.1-0.4-0.1-0.4c-0.6,0.6-1.3,1-2,1.3s-1.4,0.4-2.2,0.4c-1.4,0-2.5-0.4-3.3-1.1s-1.2-1.7-1.2-2.9c0-0.8,0.2-1.4,0.5-2
			c0.4-0.6,0.9-1.1,1.5-1.4c0.7-0.3,1.6-0.6,2.8-0.8c1.7-0.3,2.8-0.6,3.5-0.9v-0.4c0-0.7-0.2-1.2-0.5-1.5c-0.3-0.3-1-0.4-1.9-0.4
			c-0.6,0-1.1,0.1-1.5,0.4C218.8,127.6,218.6,128,218.3,128.6z M223.1,131.5c-0.5,0.2-1.2,0.3-2.2,0.5s-1.6,0.4-1.9,0.6
			c-0.5,0.3-0.7,0.7-0.7,1.3c0,0.5,0.2,0.9,0.6,1.3s0.8,0.5,1.4,0.5c0.6,0,1.3-0.2,1.8-0.6c0.4-0.3,0.7-0.7,0.9-1.2
			c0.1-0.3,0.1-0.9,0.1-1.7V131.5z"/>
		<path class="st7" d="M236.3,124.5v2.8h-2.4v5.4c0,1.1,0,1.7,0.1,1.9c0,0.2,0.2,0.3,0.3,0.5s0.4,0.2,0.6,0.2c0.3,0,0.8-0.1,1.4-0.3
			l0.3,2.8c-0.8,0.4-1.8,0.5-2.8,0.5c-0.6,0-1.2-0.1-1.7-0.3c-0.5-0.2-0.9-0.5-1.1-0.8c-0.2-0.3-0.4-0.8-0.5-1.4
			c-0.1-0.4-0.1-1.3-0.1-2.5v-5.9h-1.6v-2.8h1.6v-2.7l3.6-2.1v4.8H236.3z"/>
		<path class="st7" d="M241.5,128.6l-3.2-0.6c0.4-1.3,1-2.3,1.9-2.9s2.2-0.9,4-0.9c1.6,0,2.8,0.2,3.6,0.6c0.8,0.4,1.3,0.9,1.6,1.4
			c0.3,0.6,0.5,1.6,0.5,3.2l0,4.2c0,1.2,0.1,2.1,0.2,2.6c0.1,0.6,0.3,1.2,0.6,1.8H247c-0.1-0.2-0.2-0.6-0.3-1.1
			c-0.1-0.2-0.1-0.4-0.1-0.4c-0.6,0.6-1.3,1-2,1.3s-1.4,0.4-2.2,0.4c-1.4,0-2.5-0.4-3.3-1.1s-1.2-1.7-1.2-2.9c0-0.8,0.2-1.4,0.5-2
			c0.4-0.6,0.9-1.1,1.5-1.4c0.7-0.3,1.6-0.6,2.8-0.8c1.7-0.3,2.8-0.6,3.5-0.9v-0.4c0-0.7-0.2-1.2-0.5-1.5c-0.3-0.3-1-0.4-1.9-0.4
			c-0.6,0-1.1,0.1-1.5,0.4C242,127.6,241.7,128,241.5,128.6z M246.2,131.5c-0.5,0.2-1.2,0.3-2.2,0.5s-1.6,0.4-1.9,0.6
			c-0.5,0.3-0.7,0.7-0.7,1.3c0,0.5,0.2,0.9,0.6,1.3s0.8,0.5,1.4,0.5c0.6,0,1.3-0.2,1.8-0.6c0.4-0.3,0.7-0.7,0.9-1.2
			c0.1-0.3,0.1-0.9,0.1-1.7V131.5z"/>
		<path class="st7" d="M253.2,134.4h3.6v2.6c0,1-0.1,1.8-0.3,2.4c-0.2,0.6-0.5,1.1-1,1.6s-1.1,0.8-1.9,1.1l-0.7-1.5
			c0.7-0.2,1.2-0.6,1.5-1s0.5-1,0.5-1.7h-1.7V134.4z"/>
		<path class="st7" d="M270.4,128.6l-3.2-0.6c0.4-1.3,1-2.3,1.9-2.9s2.2-0.9,4-0.9c1.6,0,2.8,0.2,3.6,0.6c0.8,0.4,1.3,0.9,1.6,1.4
			c0.3,0.6,0.5,1.6,0.5,3.2l0,4.2c0,1.2,0.1,2.1,0.2,2.6c0.1,0.6,0.3,1.2,0.6,1.8h-3.5c-0.1-0.2-0.2-0.6-0.3-1.1
			c-0.1-0.2-0.1-0.4-0.1-0.4c-0.6,0.6-1.3,1-2,1.3s-1.4,0.4-2.2,0.4c-1.4,0-2.5-0.4-3.3-1.1s-1.2-1.7-1.2-2.9c0-0.8,0.2-1.4,0.5-2
			c0.4-0.6,0.9-1.1,1.5-1.4c0.7-0.3,1.6-0.6,2.8-0.8c1.7-0.3,2.8-0.6,3.5-0.9v-0.4c0-0.7-0.2-1.2-0.5-1.5c-0.3-0.3-1-0.4-1.9-0.4
			c-0.6,0-1.1,0.1-1.5,0.4C270.9,127.6,270.6,128,270.4,128.6z M275.1,131.5c-0.5,0.2-1.2,0.3-2.2,0.5s-1.6,0.4-1.9,0.6
			c-0.5,0.3-0.7,0.7-0.7,1.3c0,0.5,0.2,0.9,0.6,1.3s0.8,0.5,1.4,0.5c0.6,0,1.3-0.2,1.8-0.6c0.4-0.3,0.7-0.7,0.9-1.2
			c0.1-0.3,0.1-0.9,0.1-1.7V131.5z"/>
		<path class="st7" d="M282.2,138v-18.6h3.6V138H282.2z"/>
		<path class="st7" d="M291.9,138l-4.3-13.5h3.5l2.5,8.8l2.3-8.8h3.4l2.2,8.8l2.6-8.8h3.5l-4.3,13.5H300l-2.3-8.7l-2.3,8.7H291.9z"
			/>
		<path class="st7" d="M312.3,128.6L309,128c0.4-1.3,1-2.3,1.9-2.9s2.2-0.9,4-0.9c1.6,0,2.8,0.2,3.6,0.6c0.8,0.4,1.3,0.9,1.6,1.4
			c0.3,0.6,0.5,1.6,0.5,3.2l0,4.2c0,1.2,0.1,2.1,0.2,2.6c0.1,0.6,0.3,1.2,0.6,1.8h-3.5c-0.1-0.2-0.2-0.6-0.3-1.1
			c-0.1-0.2-0.1-0.4-0.1-0.4c-0.6,0.6-1.3,1-2,1.3s-1.4,0.4-2.2,0.4c-1.4,0-2.5-0.4-3.3-1.1s-1.2-1.7-1.2-2.9c0-0.8,0.2-1.4,0.5-2
			c0.4-0.6,0.9-1.1,1.5-1.4c0.7-0.3,1.6-0.6,2.8-0.8c1.7-0.3,2.8-0.6,3.5-0.9v-0.4c0-0.7-0.2-1.2-0.5-1.5c-0.3-0.3-1-0.4-1.9-0.4
			c-0.6,0-1.1,0.1-1.5,0.4C312.8,127.6,312.5,128,312.3,128.6z M317,131.5c-0.5,0.2-1.2,0.3-2.2,0.5s-1.6,0.4-1.9,0.6
			c-0.5,0.3-0.7,0.7-0.7,1.3c0,0.5,0.2,0.9,0.6,1.3s0.8,0.5,1.4,0.5c0.6,0,1.3-0.2,1.8-0.6c0.4-0.3,0.7-0.7,0.9-1.2
			c0.1-0.3,0.1-0.9,0.1-1.7V131.5z"/>
		<path class="st7" d="M322.4,124.5h3.8l3.2,9.6l3.1-9.6h3.7l-4.8,13l-0.9,2.3c-0.3,0.8-0.6,1.4-0.9,1.8s-0.6,0.8-1,1
			c-0.4,0.3-0.8,0.5-1.4,0.6s-1.1,0.2-1.8,0.2c-0.7,0-1.4-0.1-2-0.2l-0.3-2.8c0.6,0.1,1.1,0.2,1.5,0.2c0.8,0,1.4-0.2,1.8-0.7
			c0.4-0.5,0.7-1.1,0.9-1.9L322.4,124.5z"/>
		<path class="st7" d="M337.3,134.2l3.6-0.5c0.2,0.7,0.5,1.2,0.9,1.6c0.5,0.4,1.1,0.5,2,0.5c0.9,0,1.6-0.2,2.1-0.5
			c0.3-0.2,0.5-0.6,0.5-1c0-0.3-0.1-0.5-0.3-0.7c-0.2-0.2-0.6-0.3-1.2-0.5c-2.9-0.6-4.7-1.2-5.5-1.7c-1.1-0.7-1.6-1.7-1.6-3
			c0-1.2,0.5-2.1,1.4-2.9s2.4-1.2,4.3-1.2c1.8,0,3.2,0.3,4.1,0.9s1.5,1.5,1.9,2.7l-3.4,0.6c-0.1-0.5-0.4-0.9-0.8-1.2s-1-0.4-1.7-0.4
			c-0.9,0-1.6,0.1-2,0.4c-0.3,0.2-0.4,0.4-0.4,0.7c0,0.3,0.1,0.5,0.4,0.6c0.3,0.2,1.4,0.6,3.3,1s3.2,1,4,1.6
			c0.7,0.6,1.1,1.5,1.1,2.7c0,1.2-0.5,2.3-1.5,3.2s-2.6,1.3-4.6,1.3c-1.8,0-3.3-0.4-4.4-1.1S337.6,135.4,337.3,134.2z"/>
		<path class="st7" d="M359.4,131.1c0-1.2,0.3-2.3,0.9-3.4s1.4-2,2.5-2.5s2.3-0.9,3.6-0.9c2,0,3.7,0.7,5,2c1.3,1.3,2,3,2,5
			c0,2-0.7,3.7-2,5.1c-1.3,1.3-3,2-5,2c-1.2,0-2.4-0.3-3.5-0.8s-2-1.4-2.6-2.5C359.7,133.9,359.4,132.6,359.4,131.1z M363,131.3
			c0,1.3,0.3,2.4,1,3.1s1.4,1.1,2.3,1.1s1.7-0.4,2.3-1.1s0.9-1.7,0.9-3.1c0-1.3-0.3-2.3-0.9-3s-1.4-1.1-2.3-1.1s-1.7,0.4-2.3,1.1
			S363,129.9,363,131.3z"/>
		<path class="st7" d="M388.3,138h-3.6v-6.9c0-1.5-0.1-2.4-0.2-2.8c-0.2-0.4-0.4-0.8-0.7-1s-0.8-0.4-1.2-0.4c-0.6,0-1.2,0.2-1.7,0.5
			s-0.8,0.8-1,1.3s-0.3,1.6-0.3,3.1v6.1h-3.6v-13.5h3.3v2c1.2-1.5,2.7-2.3,4.4-2.3c0.8,0,1.5,0.1,2.2,0.4c0.7,0.3,1.1,0.6,1.5,1.1
			s0.6,0.9,0.7,1.5s0.2,1.4,0.2,2.4V138z"/>
		<path class="st7" d="M399.8,133.7l3.6,0.6c-0.5,1.3-1.2,2.3-2.2,3c-1,0.7-2.2,1-3.7,1c-2.3,0-4.1-0.8-5.2-2.3
			c-0.9-1.2-1.3-2.8-1.3-4.6c0-2.2,0.6-4,1.8-5.2c1.2-1.3,2.6-1.9,4.4-1.9c2,0,3.6,0.7,4.7,2c1.2,1.3,1.7,3.4,1.7,6.1h-8.9
			c0,1.1,0.3,1.9,0.9,2.5c0.6,0.6,1.2,0.9,2.1,0.9c0.6,0,1-0.2,1.4-0.5S399.6,134.4,399.8,133.7z M400,130.1c0-1-0.3-1.8-0.8-2.4
			c-0.5-0.5-1.1-0.8-1.9-0.8c-0.8,0-1.4,0.3-1.9,0.9s-0.8,1.3-0.7,2.3H400z"/>
		<path class="st7" d="M413.3,138.9l4.1,0.5c0.1,0.5,0.2,0.8,0.5,1c0.3,0.3,0.9,0.4,1.6,0.4c0.9,0,1.6-0.1,2.1-0.4
			c0.3-0.2,0.5-0.5,0.7-0.9c0.1-0.3,0.2-0.8,0.2-1.6v-2c-1.1,1.5-2.4,2.2-4,2.2c-1.8,0-3.2-0.8-4.3-2.3c-0.8-1.2-1.2-2.7-1.2-4.5
			c0-2.3,0.5-4,1.6-5.2s2.4-1.8,4.1-1.8c1.7,0,3,0.7,4.1,2.2v-1.9h3.3v12.1c0,1.6-0.1,2.8-0.4,3.6s-0.6,1.4-1.1,1.9
			s-1.1,0.8-1.9,1.1c-0.8,0.3-1.8,0.4-3,0.4c-2.3,0-3.9-0.4-4.9-1.2c-1-0.8-1.4-1.8-1.4-3C413.3,139.2,413.3,139.1,413.3,138.9z
			 M416.5,131c0,1.4,0.3,2.5,0.8,3.1c0.6,0.7,1.2,1,2.1,1c0.9,0,1.6-0.3,2.2-1c0.6-0.7,0.9-1.7,0.9-3c0-1.4-0.3-2.4-0.9-3.1
			c-0.6-0.7-1.3-1-2.2-1c-0.9,0-1.6,0.3-2.1,1C416.8,128.6,416.5,129.6,416.5,131z"/>
		<path class="st7" d="M429.5,138v-18.6h3.6V138H429.5z"/>
		<path class="st7" d="M439.4,128.6l-3.2-0.6c0.4-1.3,1-2.3,1.9-2.9s2.2-0.9,4-0.9c1.6,0,2.8,0.2,3.6,0.6c0.8,0.4,1.3,0.9,1.6,1.4
			c0.3,0.6,0.5,1.6,0.5,3.2l0,4.2c0,1.2,0.1,2.1,0.2,2.6c0.1,0.6,0.3,1.2,0.6,1.8h-3.5c-0.1-0.2-0.2-0.6-0.3-1.1
			c-0.1-0.2-0.1-0.4-0.1-0.4c-0.6,0.6-1.3,1-2,1.3s-1.4,0.4-2.2,0.4c-1.4,0-2.5-0.4-3.3-1.1c-0.8-0.8-1.2-1.7-1.2-2.9
			c0-0.8,0.2-1.4,0.5-2c0.4-0.6,0.9-1.1,1.5-1.4c0.7-0.3,1.6-0.6,2.8-0.8c1.7-0.3,2.8-0.6,3.5-0.9v-0.4c0-0.7-0.2-1.2-0.5-1.5
			c-0.3-0.3-1-0.4-1.9-0.4c-0.6,0-1.1,0.1-1.5,0.4C439.9,127.6,439.6,128,439.4,128.6z M444.2,131.5c-0.5,0.2-1.2,0.3-2.2,0.5
			s-1.6,0.4-1.9,0.6c-0.5,0.3-0.7,0.7-0.7,1.3c0,0.5,0.2,0.9,0.6,1.3s0.8,0.5,1.4,0.5c0.6,0,1.3-0.2,1.8-0.6
			c0.4-0.3,0.7-0.7,0.9-1.2c0.1-0.3,0.1-0.9,0.1-1.7V131.5z"/>
		<path class="st7" d="M463.5,138h-3.6v-6.9c0-1.5-0.1-2.4-0.2-2.8c-0.2-0.4-0.4-0.8-0.7-1c-0.3-0.2-0.8-0.4-1.2-0.4
			c-0.6,0-1.2,0.2-1.7,0.5s-0.8,0.8-1,1.3c-0.2,0.6-0.3,1.6-0.3,3.1v6.1h-3.6v-13.5h3.3v2c1.2-1.5,2.7-2.3,4.4-2.3
			c0.8,0,1.5,0.1,2.2,0.4c0.7,0.3,1.1,0.6,1.5,1.1c0.3,0.4,0.6,0.9,0.7,1.5c0.1,0.6,0.2,1.4,0.2,2.4V138z"/>
		<path class="st7" d="M478.9,128.5l-3.5,0.6c-0.1-0.7-0.4-1.2-0.8-1.6c-0.4-0.4-1-0.5-1.6-0.5c-0.9,0-1.6,0.3-2.1,0.9
			c-0.5,0.6-0.8,1.6-0.8,3.1c0,1.6,0.3,2.7,0.8,3.4c0.5,0.7,1.3,1,2.2,1c0.7,0,1.2-0.2,1.7-0.6c0.4-0.4,0.7-1,0.9-2l3.5,0.6
			c-0.4,1.6-1.1,2.8-2.1,3.6s-2.4,1.2-4.2,1.2c-2,0-3.5-0.6-4.7-1.9c-1.2-1.2-1.8-3-1.8-5.2c0-2.2,0.6-4,1.8-5.2
			c1.2-1.2,2.8-1.9,4.8-1.9c1.6,0,2.9,0.4,3.9,1.1C477.7,126,478.4,127.1,478.9,128.5z"/>
		<path class="st7" d="M489.4,133.7l3.6,0.6c-0.5,1.3-1.2,2.3-2.2,3c-1,0.7-2.2,1-3.7,1c-2.3,0-4.1-0.8-5.2-2.3
			c-0.9-1.2-1.3-2.8-1.3-4.6c0-2.2,0.6-4,1.8-5.2c1.2-1.3,2.6-1.9,4.4-1.9c2,0,3.6,0.7,4.7,2c1.2,1.3,1.7,3.4,1.7,6.1h-8.9
			c0,1.1,0.3,1.9,0.9,2.5c0.5,0.6,1.2,0.9,2.1,0.9c0.6,0,1-0.2,1.4-0.5S489.2,134.4,489.4,133.7z M489.6,130.1c0-1-0.3-1.8-0.8-2.4
			c-0.5-0.5-1.1-0.8-1.9-0.8c-0.8,0-1.4,0.3-1.9,0.9s-0.8,1.3-0.7,2.3H489.6z"/>
		<path class="st7" d="M505.9,128.6l-3.2-0.6c0.4-1.3,1-2.3,1.9-2.9s2.2-0.9,4-0.9c1.6,0,2.8,0.2,3.6,0.6c0.8,0.4,1.3,0.9,1.6,1.4
			c0.3,0.6,0.5,1.6,0.5,3.2l0,4.2c0,1.2,0.1,2.1,0.2,2.6c0.1,0.6,0.3,1.2,0.6,1.8h-3.5c-0.1-0.2-0.2-0.6-0.3-1.1
			c-0.1-0.2-0.1-0.4-0.1-0.4c-0.6,0.6-1.3,1-2,1.3s-1.4,0.4-2.2,0.4c-1.4,0-2.5-0.4-3.3-1.1c-0.8-0.8-1.2-1.7-1.2-2.9
			c0-0.8,0.2-1.4,0.5-2c0.4-0.6,0.9-1.1,1.5-1.4c0.7-0.3,1.6-0.6,2.8-0.8c1.7-0.3,2.8-0.6,3.5-0.9v-0.4c0-0.7-0.2-1.2-0.5-1.5
			c-0.3-0.3-1-0.4-1.9-0.4c-0.6,0-1.1,0.1-1.5,0.4C506.4,127.6,506.1,128,505.9,128.6z M510.7,131.5c-0.5,0.2-1.2,0.3-2.2,0.5
			s-1.6,0.4-1.9,0.6c-0.5,0.3-0.7,0.7-0.7,1.3c0,0.5,0.2,0.9,0.6,1.3s0.8,0.5,1.4,0.5c0.6,0,1.3-0.2,1.8-0.6
			c0.4-0.3,0.7-0.7,0.9-1.2c0.1-0.3,0.1-0.9,0.1-1.7V131.5z"/>
		<path class="st7" d="M520.2,138l-4.3-13.5h3.5l2.5,8.8l2.3-8.8h3.4l2.2,8.8l2.6-8.8h3.5l-4.3,13.5h-3.4l-2.3-8.7l-2.3,8.7H520.2z"
			/>
		<path class="st7" d="M540.6,128.6l-3.2-0.6c0.4-1.3,1-2.3,1.9-2.9s2.2-0.9,4-0.9c1.6,0,2.8,0.2,3.6,0.6c0.8,0.4,1.3,0.9,1.6,1.4
			c0.3,0.6,0.5,1.6,0.5,3.2l0,4.2c0,1.2,0.1,2.1,0.2,2.6c0.1,0.6,0.3,1.2,0.6,1.8h-3.5c-0.1-0.2-0.2-0.6-0.3-1.1
			c-0.1-0.2-0.1-0.4-0.1-0.4c-0.6,0.6-1.3,1-2,1.3s-1.4,0.4-2.2,0.4c-1.4,0-2.5-0.4-3.3-1.1c-0.8-0.8-1.2-1.7-1.2-2.9
			c0-0.8,0.2-1.4,0.5-2c0.4-0.6,0.9-1.1,1.5-1.4c0.7-0.3,1.6-0.6,2.8-0.8c1.7-0.3,2.8-0.6,3.5-0.9v-0.4c0-0.7-0.2-1.2-0.5-1.5
			c-0.3-0.3-1-0.4-1.9-0.4c-0.6,0-1.1,0.1-1.5,0.4C541.1,127.6,540.8,128,540.6,128.6z M545.4,131.5c-0.5,0.2-1.2,0.3-2.2,0.5
			s-1.6,0.4-1.9,0.6c-0.5,0.3-0.7,0.7-0.7,1.3c0,0.5,0.2,0.9,0.6,1.3s0.8,0.5,1.4,0.5c0.6,0,1.3-0.2,1.8-0.6
			c0.4-0.3,0.7-0.7,0.9-1.2c0.1-0.3,0.1-0.9,0.1-1.7V131.5z"/>
		<path class="st7" d="M550.7,124.5h3.8l3.2,9.6l3.1-9.6h3.7l-4.8,13l-0.9,2.3c-0.3,0.8-0.6,1.4-0.9,1.8c-0.3,0.4-0.6,0.8-1,1
			c-0.4,0.3-0.8,0.5-1.4,0.6c-0.5,0.1-1.1,0.2-1.8,0.2c-0.7,0-1.4-0.1-2-0.2l-0.3-2.8c0.6,0.1,1.1,0.2,1.5,0.2
			c0.8,0,1.4-0.2,1.8-0.7c0.4-0.5,0.7-1.1,0.9-1.9L550.7,124.5z"/>
		<path class="st7" d="M566.8,138v-3.6h3.6v3.6H566.8z"/>
	</g>
	<g class="st4">
		<path class="st8" d="M2.2,172v-17.2h2.3V172H2.2z"/>
		<path class="st8" d="M8.2,172v-12.4h1.9v1.9c0.5-0.9,0.9-1.5,1.3-1.7s0.9-0.4,1.4-0.4c0.7,0,1.4,0.2,2.2,0.7l-0.7,2
			c-0.5-0.3-1-0.5-1.5-0.5c-0.5,0-0.9,0.1-1.2,0.4s-0.6,0.7-0.8,1.2c-0.2,0.8-0.4,1.6-0.4,2.5v6.5H8.2z"/>
		<path class="st8" d="M24.4,170.5c-0.8,0.7-1.5,1.1-2.3,1.4s-1.5,0.4-2.3,0.4c-1.4,0-2.4-0.3-3.2-1s-1.1-1.5-1.1-2.6
			c0-0.6,0.1-1.2,0.4-1.7s0.6-0.9,1.1-1.2s1-0.5,1.5-0.7c0.4-0.1,1-0.2,1.9-0.3c1.7-0.2,3-0.4,3.8-0.7c0-0.3,0-0.5,0-0.6
			c0-0.9-0.2-1.5-0.6-1.8c-0.5-0.5-1.3-0.7-2.4-0.7c-1,0-1.7,0.2-2.2,0.5s-0.8,1-1,1.8l-2.1-0.3c0.2-0.9,0.5-1.6,0.9-2.1
			s1.1-1,1.9-1.3s1.8-0.4,2.8-0.4c1.1,0,1.9,0.1,2.6,0.4s1.2,0.6,1.5,0.9s0.5,0.9,0.7,1.4c0.1,0.4,0.1,1,0.1,1.9v2.8
			c0,2,0,3.2,0.1,3.7s0.3,1,0.5,1.5h-2.2C24.6,171.6,24.4,171.1,24.4,170.5z M24.2,165.8c-0.8,0.3-1.9,0.6-3.4,0.8
			c-0.9,0.1-1.5,0.3-1.8,0.4s-0.6,0.4-0.8,0.7s-0.3,0.6-0.3,1c0,0.6,0.2,1,0.6,1.4s1,0.6,1.9,0.6c0.8,0,1.5-0.2,2.2-0.5
			s1.1-0.8,1.4-1.5c0.2-0.5,0.3-1.2,0.3-2.1V165.8z"/>
		<path class="st8" d="M29.6,172v-12.4h1.9v1.8c0.9-1.4,2.2-2.1,4-2.1c0.8,0,1.4,0.1,2.1,0.4s1.1,0.6,1.4,1.1s0.5,1,0.7,1.6
			c0.1,0.4,0.1,1.1,0.1,2.1v7.7h-2.1v-7.6c0-0.9-0.1-1.5-0.2-1.9s-0.5-0.8-0.9-1s-0.9-0.4-1.5-0.4c-0.9,0-1.7,0.3-2.3,0.9
			s-1,1.7-1,3.2v6.8H29.6z"/>
		<path class="st8" d="M51.1,167.4l2.1,0.3c-0.2,1.4-0.8,2.5-1.7,3.4s-2.1,1.2-3.4,1.2c-1.7,0-3.1-0.6-4.1-1.7s-1.6-2.7-1.6-4.8
			c0-1.3,0.2-2.5,0.7-3.5s1.1-1.8,2-2.3s1.9-0.8,3-0.8c1.4,0,2.5,0.3,3.3,1s1.4,1.7,1.7,2.9l-2.1,0.3c-0.2-0.8-0.5-1.5-1-1.9
			S48.8,161,48,161c-1.1,0-1.9,0.4-2.6,1.1s-1,2-1,3.6c0,1.7,0.3,2.9,1,3.6s1.5,1.1,2.5,1.1c0.8,0,1.5-0.3,2.1-0.8
			S50.9,168.5,51.1,167.4z"/>
		<path class="st8" d="M63.5,168l2.2,0.3c-0.3,1.3-1,2.3-1.9,3s-2.1,1.1-3.6,1.1c-1.8,0-3.3-0.6-4.3-1.7s-1.6-2.7-1.6-4.7
			c0-2.1,0.5-3.7,1.6-4.9s2.5-1.7,4.2-1.7c1.7,0,3,0.6,4.1,1.7s1.6,2.7,1.6,4.8c0,0.1,0,0.3,0,0.6h-9.3c0.1,1.4,0.5,2.4,1.2,3.1
			s1.6,1.1,2.6,1.1c0.8,0,1.4-0.2,2-0.6S63.1,168.9,63.5,168z M56.5,164.6h6.9c-0.1-1-0.4-1.8-0.8-2.4c-0.7-0.8-1.5-1.2-2.6-1.2
			c-1,0-1.8,0.3-2.4,1S56.6,163.5,56.5,164.6z"/>
		<path class="st8" d="M68.2,172v-17.2h2.1V172H68.2z"/>
		<path class="st8" d="M73.6,172v-17.2h2.1V172H73.6z"/>
		<path class="st8" d="M86.8,164.5v-2.4h2.4v2.4H86.8z"/>
		<path class="st8" d="M99.8,166.5l2.1-0.2c0.1,0.9,0.3,1.6,0.7,2.1s0.9,1,1.7,1.3s1.7,0.5,2.6,0.5c0.9,0,1.6-0.1,2.3-0.4
			s1.2-0.6,1.5-1.1s0.5-0.9,0.5-1.5c0-0.5-0.2-1-0.5-1.4s-0.8-0.7-1.5-1c-0.5-0.2-1.5-0.5-3.1-0.8s-2.7-0.7-3.3-1.1
			c-0.8-0.4-1.4-1-1.8-1.6s-0.6-1.3-0.6-2.1c0-0.9,0.2-1.7,0.7-2.4s1.2-1.3,2.2-1.7s2-0.6,3.2-0.6c1.3,0,2.4,0.2,3.4,0.6
			s1.7,1,2.2,1.8s0.8,1.7,0.8,2.7l-2.2,0.2c-0.1-1.1-0.5-1.9-1.2-2.5s-1.7-0.8-3-0.8c-1.4,0-2.4,0.3-3,0.8s-0.9,1.1-0.9,1.8
			c0,0.6,0.2,1.1,0.7,1.5c0.4,0.4,1.6,0.8,3.4,1.2s3.1,0.8,3.8,1.1c1,0.5,1.7,1,2.2,1.8s0.7,1.5,0.7,2.4c0,0.9-0.3,1.8-0.8,2.6
			s-1.3,1.4-2.3,1.9s-2.1,0.7-3.3,0.7c-1.6,0-2.9-0.2-3.9-0.7s-1.9-1.1-2.5-2S99.8,167.6,99.8,166.5z"/>
		<path class="st8" d="M116.3,172v-17.2h2.1v6.2c1-1.1,2.2-1.7,3.7-1.7c0.9,0,1.7,0.2,2.4,0.5s1.2,0.9,1.5,1.5s0.4,1.6,0.4,2.8v7.9
			h-2.1v-7.9c0-1.1-0.2-1.8-0.7-2.3s-1.1-0.7-1.9-0.7c-0.6,0-1.2,0.2-1.8,0.5s-0.9,0.8-1.2,1.3s-0.4,1.3-0.4,2.3v6.8H116.3z"/>
		<path class="st8" d="M137.8,170.5c-0.8,0.7-1.5,1.1-2.3,1.4s-1.5,0.4-2.3,0.4c-1.4,0-2.4-0.3-3.2-1s-1.1-1.5-1.1-2.6
			c0-0.6,0.1-1.2,0.4-1.7s0.6-0.9,1.1-1.2s1-0.5,1.5-0.7c0.4-0.1,1-0.2,1.9-0.3c1.7-0.2,3-0.4,3.8-0.7c0-0.3,0-0.5,0-0.6
			c0-0.9-0.2-1.5-0.6-1.8c-0.5-0.5-1.3-0.7-2.4-0.7c-1,0-1.7,0.2-2.2,0.5s-0.8,1-1,1.8l-2.1-0.3c0.2-0.9,0.5-1.6,0.9-2.1
			s1.1-1,1.9-1.3s1.8-0.4,2.8-0.4c1.1,0,1.9,0.1,2.6,0.4s1.2,0.6,1.5,0.9s0.5,0.9,0.7,1.4c0.1,0.4,0.1,1,0.1,1.9v2.8
			c0,2,0,3.2,0.1,3.7s0.3,1,0.5,1.5h-2.2C138,171.6,137.8,171.1,137.8,170.5z M137.6,165.8c-0.8,0.3-1.9,0.6-3.4,0.8
			c-0.9,0.1-1.5,0.3-1.8,0.4s-0.6,0.4-0.8,0.7s-0.3,0.6-0.3,1c0,0.6,0.2,1,0.6,1.4s1,0.6,1.9,0.6c0.8,0,1.5-0.2,2.2-0.5
			s1.1-0.8,1.4-1.5c0.2-0.5,0.3-1.2,0.3-2.1V165.8z"/>
		<path class="st8" d="M147.6,170.1l0.3,1.9c-0.6,0.1-1.1,0.2-1.6,0.2c-0.8,0-1.4-0.1-1.8-0.4s-0.7-0.6-0.9-1s-0.3-1.2-0.3-2.5v-7.2
			h-1.5v-1.6h1.5v-3.1l2.1-1.3v4.3h2.1v1.6h-2.1v7.3c0,0.6,0,1,0.1,1.2s0.2,0.3,0.4,0.4s0.4,0.2,0.7,0.2
			C146.9,170.2,147.2,170.2,147.6,170.1z"/>
		<path class="st8" d="M158.2,168l2.2,0.3c-0.3,1.3-1,2.3-1.9,3s-2.1,1.1-3.6,1.1c-1.8,0-3.3-0.6-4.3-1.7s-1.6-2.7-1.6-4.7
			c0-2.1,0.5-3.7,1.6-4.9s2.5-1.7,4.2-1.7c1.7,0,3,0.6,4.1,1.7s1.6,2.7,1.6,4.8c0,0.1,0,0.3,0,0.6h-9.3c0.1,1.4,0.5,2.4,1.2,3.1
			s1.6,1.1,2.6,1.1c0.8,0,1.4-0.2,2-0.6S157.8,168.9,158.2,168z M151.2,164.6h6.9c-0.1-1-0.4-1.8-0.8-2.4c-0.7-0.8-1.5-1.2-2.6-1.2
			c-1,0-1.8,0.3-2.4,1S151.3,163.5,151.2,164.6z"/>
		<path class="st8" d="M162.9,172v-17.2h2.1V172H162.9z"/>
		<path class="st8" d="M176.2,164.5v-2.4h2.4v2.4H176.2z"/>
		<path class="st8" d="M189.9,172v-17.2h3.4l4.1,12.2c0.4,1.1,0.6,2,0.8,2.5c0.2-0.6,0.5-1.5,0.9-2.8l4.1-12h3.1V172h-2.2v-14.4
			l-5,14.4H197l-5-14.6V172H189.9z"/>
		<path class="st8" d="M222.2,166l2.3,0.6c-0.5,1.9-1.3,3.3-2.6,4.3s-2.8,1.5-4.5,1.5c-1.9,0-3.4-0.4-4.5-1.1s-2-1.8-2.6-3.3
			s-0.9-3-0.9-4.6c0-1.8,0.3-3.3,1-4.7s1.7-2.3,2.9-3s2.7-1,4.2-1c1.7,0,3.2,0.4,4.3,1.3s2,2.1,2.4,3.7l-2.2,0.5
			c-0.4-1.2-1-2.2-1.7-2.7s-1.7-0.9-2.9-0.9c-1.3,0-2.4,0.3-3.3,0.9s-1.5,1.5-1.9,2.5s-0.5,2.2-0.5,3.3c0,1.5,0.2,2.7,0.6,3.8
			s1.1,1.9,2,2.4s1.9,0.8,2.9,0.8c1.3,0,2.4-0.4,3.2-1.1S221.9,167.4,222.2,166z"/>
		<path class="st8" d="M227.6,172v-17.2h2.3V172H227.6z"/>
		<path class="st8" d="M238.7,166.6v-1.7h24v1.7H238.7z"/>
		<path class="st8" d="M279.1,170.5c-0.8,0.7-1.5,1.1-2.3,1.4s-1.5,0.4-2.3,0.4c-1.4,0-2.4-0.3-3.2-1s-1.1-1.5-1.1-2.6
			c0-0.6,0.1-1.2,0.4-1.7s0.6-0.9,1.1-1.2s1-0.5,1.5-0.7c0.4-0.1,1-0.2,1.9-0.3c1.7-0.2,3-0.4,3.8-0.7c0-0.3,0-0.5,0-0.6
			c0-0.9-0.2-1.5-0.6-1.8c-0.5-0.5-1.3-0.7-2.4-0.7c-1,0-1.7,0.2-2.2,0.5s-0.8,1-1,1.8l-2.1-0.3c0.2-0.9,0.5-1.6,0.9-2.1
			s1.1-1,1.9-1.3s1.8-0.4,2.8-0.4c1.1,0,1.9,0.1,2.6,0.4s1.2,0.6,1.5,0.9s0.5,0.9,0.7,1.4c0.1,0.4,0.1,1,0.1,1.9v2.8
			c0,2,0,3.2,0.1,3.7s0.3,1,0.5,1.5h-2.2C279.3,171.6,279.2,171.1,279.1,170.5z M278.9,165.8c-0.8,0.3-1.9,0.6-3.4,0.8
			c-0.9,0.1-1.5,0.3-1.8,0.4s-0.6,0.4-0.8,0.7s-0.3,0.6-0.3,1c0,0.6,0.2,1,0.6,1.4s1,0.6,1.9,0.6c0.8,0,1.5-0.2,2.2-0.5
			s1.1-0.8,1.4-1.5c0.2-0.5,0.3-1.2,0.3-2.1V165.8z"/>
		<path class="st8" d="M292.5,172v-1.8c-1,1.4-2.3,2.1-3.9,2.1c-0.7,0-1.4-0.1-2.1-0.4s-1.1-0.6-1.4-1.1s-0.5-0.9-0.7-1.6
			c-0.1-0.4-0.1-1.1-0.1-2v-7.7h2.1v6.9c0,1.1,0,1.8,0.1,2.2c0.1,0.6,0.4,1,0.8,1.3s1,0.5,1.6,0.5s1.2-0.2,1.8-0.5s0.9-0.8,1.2-1.3
			s0.3-1.4,0.3-2.4v-6.7h2.1V172H292.5z"/>
		<path class="st8" d="M302.3,170.1l0.3,1.9c-0.6,0.1-1.1,0.2-1.6,0.2c-0.8,0-1.4-0.1-1.8-0.4s-0.7-0.6-0.9-1s-0.3-1.2-0.3-2.5v-7.2
			h-1.5v-1.6h1.5v-3.1l2.1-1.3v4.3h2.1v1.6h-2.1v7.3c0,0.6,0,1,0.1,1.2s0.2,0.3,0.4,0.4s0.4,0.2,0.7,0.2
			C301.6,170.2,301.9,170.2,302.3,170.1z"/>
		<path class="st8" d="M303.6,165.8c0-2.3,0.6-4,1.9-5.1c1.1-0.9,2.4-1.4,3.9-1.4c1.7,0,3.1,0.6,4.2,1.7s1.6,2.7,1.6,4.6
			c0,1.6-0.2,2.9-0.7,3.8s-1.2,1.6-2.1,2.1s-1.9,0.8-3,0.8c-1.7,0-3.2-0.6-4.2-1.7S303.6,167.9,303.6,165.8z M305.7,165.8
			c0,1.6,0.3,2.8,1,3.6s1.6,1.2,2.6,1.2c1,0,1.9-0.4,2.6-1.2s1-2,1-3.6c0-1.5-0.3-2.7-1-3.5s-1.6-1.2-2.6-1.2
			c-1.1,0-1.9,0.4-2.6,1.2S305.7,164.2,305.7,165.8z"/>
		<path class="st8" d="M316.9,166.8v-2.1h6.5v2.1H316.9z"/>
		<path class="st8" d="M325.7,172v-12.4h1.9v1.9c0.5-0.9,0.9-1.5,1.3-1.7s0.9-0.4,1.4-0.4c0.7,0,1.4,0.2,2.2,0.7l-0.7,2
			c-0.5-0.3-1-0.5-1.5-0.5c-0.5,0-0.9,0.1-1.2,0.4s-0.6,0.7-0.8,1.2c-0.2,0.8-0.4,1.6-0.4,2.5v6.5H325.7z"/>
		<path class="st8" d="M342.2,168l2.2,0.3c-0.3,1.3-1,2.3-1.9,3s-2.1,1.1-3.6,1.1c-1.8,0-3.3-0.6-4.3-1.7s-1.6-2.7-1.6-4.7
			c0-2.1,0.5-3.7,1.6-4.9s2.5-1.7,4.2-1.7c1.7,0,3,0.6,4.1,1.7s1.6,2.7,1.6,4.8c0,0.1,0,0.3,0,0.6h-9.3c0.1,1.4,0.5,2.4,1.2,3.1
			s1.6,1.1,2.6,1.1c0.8,0,1.4-0.2,2-0.6S341.9,168.9,342.2,168z M335.3,164.6h6.9c-0.1-1-0.4-1.8-0.8-2.4c-0.7-0.8-1.5-1.2-2.6-1.2
			c-1,0-1.8,0.3-2.4,1S335.3,163.5,335.3,164.6z"/>
		<path class="st8" d="M347.5,172v-10.8h-1.9v-1.6h1.9v-1.3c0-0.8,0.1-1.5,0.2-1.9c0.2-0.5,0.6-1,1.1-1.3s1.2-0.5,2.2-0.5
			c0.6,0,1.2,0.1,2,0.2l-0.3,1.8c-0.4-0.1-0.9-0.1-1.2-0.1c-0.6,0-1.1,0.1-1.4,0.4s-0.4,0.8-0.4,1.5v1.1h2.4v1.6h-2.4V172H347.5z"/>
		<path class="st8" d="M353.7,172v-12.4h1.9v1.9c0.5-0.9,0.9-1.5,1.3-1.7s0.9-0.4,1.4-0.4c0.7,0,1.4,0.2,2.2,0.7l-0.7,2
			c-0.5-0.3-1-0.5-1.5-0.5c-0.5,0-0.9,0.1-1.2,0.4s-0.6,0.7-0.8,1.2c-0.2,0.8-0.4,1.6-0.4,2.5v6.5H353.7z"/>
		<path class="st8" d="M370.2,168l2.2,0.3c-0.3,1.3-1,2.3-1.9,3s-2.1,1.1-3.6,1.1c-1.8,0-3.3-0.6-4.3-1.7s-1.6-2.7-1.6-4.7
			c0-2.1,0.5-3.7,1.6-4.9s2.5-1.7,4.2-1.7c1.7,0,3,0.6,4.1,1.7s1.6,2.7,1.6,4.8c0,0.1,0,0.3,0,0.6h-9.3c0.1,1.4,0.5,2.4,1.2,3.1
			s1.6,1.1,2.6,1.1c0.8,0,1.4-0.2,2-0.6S369.9,168.9,370.2,168z M363.3,164.6h6.9c-0.1-1-0.4-1.8-0.8-2.4c-0.7-0.8-1.5-1.2-2.6-1.2
			c-1,0-1.8,0.3-2.4,1S363.4,163.5,363.3,164.6z"/>
		<path class="st8" d="M374.2,168.3l2.1-0.3c0.1,0.8,0.4,1.5,1,1.9s1.3,0.7,2.2,0.7c1,0,1.7-0.2,2.2-0.6s0.7-0.9,0.7-1.4
			c0-0.5-0.2-0.9-0.6-1.1c-0.3-0.2-1-0.4-2.2-0.7c-1.5-0.4-2.6-0.7-3.2-1s-1.1-0.7-1.4-1.2s-0.5-1.1-0.5-1.7c0-0.6,0.1-1.1,0.4-1.5
			s0.6-0.9,1-1.2c0.3-0.2,0.8-0.4,1.3-0.6s1.2-0.3,1.8-0.3c1,0,1.8,0.1,2.6,0.4s1.3,0.7,1.6,1.1s0.6,1.1,0.7,1.9L382,163
			c-0.1-0.6-0.4-1.1-0.8-1.5s-1.1-0.5-1.9-0.5c-1,0-1.7,0.2-2.1,0.5s-0.6,0.7-0.6,1.1c0,0.3,0.1,0.5,0.3,0.7
			c0.2,0.2,0.4,0.4,0.8,0.6c0.2,0.1,0.8,0.3,1.9,0.5c1.5,0.4,2.5,0.7,3.1,1s1.1,0.6,1.4,1.1s0.5,1.1,0.5,1.8c0,0.7-0.2,1.4-0.6,2
			s-1,1.1-1.8,1.4s-1.6,0.5-2.6,0.5c-1.6,0-2.8-0.3-3.7-1S374.4,169.6,374.2,168.3z"/>
		<path class="st8" d="M387,172v-17.2h2.1v6.2c1-1.1,2.2-1.7,3.7-1.7c0.9,0,1.7,0.2,2.4,0.5s1.2,0.9,1.5,1.5s0.4,1.6,0.4,2.8v7.9
			h-2.1v-7.9c0-1.1-0.2-1.8-0.7-2.3s-1.1-0.7-1.9-0.7c-0.6,0-1.2,0.2-1.8,0.5s-0.9,0.8-1.2,1.3s-0.4,1.3-0.4,2.3v6.8H387z"/>
		<path class="st8" d="M400.4,157.2v-2.4h2.1v2.4H400.4z M400.4,172v-12.4h2.1V172H400.4z"/>
		<path class="st8" d="M405.7,172v-12.4h1.9v1.8c0.9-1.4,2.2-2.1,4-2.1c0.8,0,1.4,0.1,2.1,0.4s1.1,0.6,1.4,1.1s0.5,1,0.7,1.6
			c0.1,0.4,0.1,1.1,0.1,2.1v7.7h-2.1v-7.6c0-0.9-0.1-1.5-0.2-1.9s-0.5-0.8-0.9-1s-0.9-0.4-1.5-0.4c-0.9,0-1.7,0.3-2.3,0.9
			s-1,1.7-1,3.2v6.8H405.7z"/>
		<path class="st8" d="M418.7,173l2.1,0.3c0.1,0.6,0.3,1.1,0.7,1.4c0.5,0.4,1.2,0.6,2.1,0.6c1,0,1.7-0.2,2.3-0.6s0.9-0.9,1.1-1.6
			c0.1-0.4,0.2-1.3,0.2-2.7c-0.9,1.1-2.1,1.6-3.4,1.6c-1.7,0-3-0.6-4-1.9s-1.4-2.7-1.4-4.4c0-1.2,0.2-2.3,0.6-3.3s1.1-1.8,1.9-2.3
			s1.8-0.8,2.9-0.8c1.5,0,2.7,0.6,3.6,1.8v-1.5h1.9v10.8c0,1.9-0.2,3.3-0.6,4.1s-1,1.4-1.9,1.9s-1.9,0.7-3.2,0.7
			c-1.5,0-2.7-0.3-3.6-1S418.6,174.4,418.7,173z M420.4,165.6c0,1.6,0.3,2.8,1,3.6s1.5,1.1,2.4,1.1c1,0,1.8-0.4,2.4-1.1s1-1.9,1-3.5
			c0-1.5-0.3-2.7-1-3.4s-1.5-1.2-2.4-1.2c-0.9,0-1.7,0.4-2.4,1.1S420.4,164.1,420.4,165.6z"/>
		<path class="st8" d="M433,172v-2.4h2.4v2.4c0,0.9-0.2,1.6-0.5,2.1s-0.8,1-1.5,1.3l-0.6-0.9c0.4-0.2,0.8-0.5,1-0.9s0.3-0.9,0.4-1.6
			H433z"/>
		<path class="st8" d="M445.7,172v-12.4h1.9v1.8c0.9-1.4,2.2-2.1,4-2.1c0.8,0,1.4,0.1,2.1,0.4s1.1,0.6,1.4,1.1s0.5,1,0.7,1.6
			c0.1,0.4,0.1,1.1,0.1,2.1v7.7h-2.1v-7.6c0-0.9-0.1-1.5-0.2-1.9s-0.5-0.8-0.9-1s-0.9-0.4-1.5-0.4c-0.9,0-1.7,0.3-2.3,0.9
			s-1,1.7-1,3.2v6.8H445.7z"/>
		<path class="st8" d="M458.3,165.8c0-2.3,0.6-4,1.9-5.1c1.1-0.9,2.4-1.4,3.9-1.4c1.7,0,3.1,0.6,4.2,1.7s1.6,2.7,1.6,4.6
			c0,1.6-0.2,2.9-0.7,3.8s-1.2,1.6-2.1,2.1s-1.9,0.8-3,0.8c-1.7,0-3.2-0.6-4.2-1.7S458.3,167.9,458.3,165.8z M460.5,165.8
			c0,1.6,0.3,2.8,1,3.6s1.6,1.2,2.6,1.2c1,0,1.9-0.4,2.6-1.2s1-2,1-3.6c0-1.5-0.3-2.7-1-3.5s-1.6-1.2-2.6-1.2
			c-1.1,0-1.9,0.4-2.6,1.2S460.5,164.2,460.5,165.8z"/>
		<path class="st8" d="M479.1,172v-12.4h1.9v1.7c0.4-0.6,0.9-1.1,1.6-1.5s1.4-0.6,2.2-0.6c0.9,0,1.7,0.2,2.3,0.6s1,0.9,1.2,1.6
			c1-1.5,2.3-2.2,3.8-2.2c1.2,0,2.2,0.3,2.8,1s1,1.7,1,3.2v8.5h-2.1v-7.8c0-0.8-0.1-1.5-0.2-1.8s-0.4-0.7-0.7-0.9s-0.8-0.3-1.3-0.3
			c-0.9,0-1.6,0.3-2.2,0.9s-0.9,1.5-0.9,2.8v7.2h-2.1v-8.1c0-0.9-0.2-1.6-0.5-2.1s-0.9-0.7-1.7-0.7c-0.6,0-1.1,0.2-1.6,0.5
			s-0.9,0.8-1.1,1.4s-0.3,1.5-0.3,2.6v6.5H479.1z"/>
		<path class="st8" d="M507.2,170.5c-0.8,0.7-1.5,1.1-2.3,1.4s-1.5,0.4-2.3,0.4c-1.4,0-2.4-0.3-3.2-1s-1.1-1.5-1.1-2.6
			c0-0.6,0.1-1.2,0.4-1.7s0.6-0.9,1.1-1.2s1-0.5,1.5-0.7c0.4-0.1,1-0.2,1.9-0.3c1.7-0.2,3-0.4,3.8-0.7c0-0.3,0-0.5,0-0.6
			c0-0.9-0.2-1.5-0.6-1.8c-0.5-0.5-1.3-0.7-2.4-0.7c-1,0-1.7,0.2-2.2,0.5s-0.8,1-1,1.8l-2.1-0.3c0.2-0.9,0.5-1.6,0.9-2.1
			s1.1-1,1.9-1.3s1.8-0.4,2.8-0.4c1.1,0,1.9,0.1,2.6,0.4s1.2,0.6,1.5,0.9s0.5,0.9,0.7,1.4c0.1,0.4,0.1,1,0.1,1.9v2.8
			c0,2,0,3.2,0.1,3.7s0.3,1,0.5,1.5h-2.2C507.4,171.6,507.3,171.1,507.2,170.5z M507,165.8c-0.8,0.3-1.9,0.6-3.4,0.8
			c-0.9,0.1-1.5,0.3-1.8,0.4s-0.6,0.4-0.8,0.7s-0.3,0.6-0.3,1c0,0.6,0.2,1,0.6,1.4s1,0.6,1.9,0.6c0.8,0,1.5-0.2,2.2-0.5
			s1.1-0.8,1.4-1.5c0.2-0.5,0.3-1.2,0.3-2.1V165.8z"/>
		<path class="st8" d="M512.4,172v-12.4h1.9v1.8c0.9-1.4,2.2-2.1,4-2.1c0.8,0,1.4,0.1,2.1,0.4s1.1,0.6,1.4,1.1s0.5,1,0.7,1.6
			c0.1,0.4,0.1,1.1,0.1,2.1v7.7h-2.1v-7.6c0-0.9-0.1-1.5-0.2-1.9s-0.5-0.8-0.9-1s-0.9-0.4-1.5-0.4c-0.9,0-1.7,0.3-2.3,0.9
			s-1,1.7-1,3.2v6.8H512.4z"/>
		<path class="st8" d="M534,172v-1.8c-1,1.4-2.3,2.1-3.9,2.1c-0.7,0-1.4-0.1-2.1-0.4s-1.1-0.6-1.4-1.1s-0.5-0.9-0.7-1.6
			c-0.1-0.4-0.1-1.1-0.1-2v-7.7h2.1v6.9c0,1.1,0,1.8,0.1,2.2c0.1,0.6,0.4,1,0.8,1.3s1,0.5,1.6,0.5s1.2-0.2,1.8-0.5s0.9-0.8,1.2-1.3
			s0.3-1.4,0.3-2.4v-6.7h2.1V172H534z"/>
		<path class="st8" d="M547.3,170.5c-0.8,0.7-1.5,1.1-2.3,1.4s-1.5,0.4-2.3,0.4c-1.4,0-2.4-0.3-3.2-1s-1.1-1.5-1.1-2.6
			c0-0.6,0.1-1.2,0.4-1.7s0.6-0.9,1.1-1.2s1-0.5,1.5-0.7c0.4-0.1,1-0.2,1.9-0.3c1.7-0.2,3-0.4,3.8-0.7c0-0.3,0-0.5,0-0.6
			c0-0.9-0.2-1.5-0.6-1.8c-0.5-0.5-1.3-0.7-2.4-0.7c-1,0-1.7,0.2-2.2,0.5s-0.8,1-1,1.8l-2.1-0.3c0.2-0.9,0.5-1.6,0.9-2.1
			s1.1-1,1.9-1.3s1.8-0.4,2.8-0.4c1.1,0,1.9,0.1,2.6,0.4s1.2,0.6,1.5,0.9s0.5,0.9,0.7,1.4c0.1,0.4,0.1,1,0.1,1.9v2.8
			c0,2,0,3.2,0.1,3.7s0.3,1,0.5,1.5h-2.2C547.5,171.6,547.3,171.1,547.3,170.5z M547.1,165.8c-0.8,0.3-1.9,0.6-3.4,0.8
			c-0.9,0.1-1.5,0.3-1.8,0.4s-0.6,0.4-0.8,0.7s-0.3,0.6-0.3,1c0,0.6,0.2,1,0.6,1.4s1,0.6,1.9,0.6c0.8,0,1.5-0.2,2.2-0.5
			s1.1-0.8,1.4-1.5c0.2-0.5,0.3-1.2,0.3-2.1V165.8z"/>
		<path class="st8" d="M552.4,172v-17.2h2.1V172H552.4z"/>
		<path class="st8" d="M564.5,172v-12.4h1.9v1.9c0.5-0.9,0.9-1.5,1.3-1.7s0.9-0.4,1.4-0.4c0.7,0,1.4,0.2,2.2,0.7l-0.7,2
			c-0.5-0.3-1-0.5-1.5-0.5c-0.5,0-0.9,0.1-1.2,0.4s-0.6,0.7-0.8,1.2c-0.2,0.8-0.4,1.6-0.4,2.5v6.5H564.5z"/>
		<path class="st8" d="M581,168l2.2,0.3c-0.3,1.3-1,2.3-1.9,3s-2.1,1.1-3.6,1.1c-1.8,0-3.3-0.6-4.3-1.7s-1.6-2.7-1.6-4.7
			c0-2.1,0.5-3.7,1.6-4.9s2.5-1.7,4.2-1.7c1.7,0,3,0.6,4.1,1.7s1.6,2.7,1.6,4.8c0,0.1,0,0.3,0,0.6H574c0.1,1.4,0.5,2.4,1.2,3.1
			s1.6,1.1,2.6,1.1c0.8,0,1.4-0.2,2-0.6S580.7,168.9,581,168z M574.1,164.6h6.9c-0.1-1-0.4-1.8-0.8-2.4c-0.7-0.8-1.5-1.2-2.6-1.2
			c-1,0-1.8,0.3-2.4,1S574.1,163.5,574.1,164.6z"/>
		<path class="st8" d="M585,166.8v-2.1h6.5v2.1H585z"/>
		<path class="st8" d="M593.8,172v-17.2h2.1V172H593.8z"/>
		<path class="st8" d="M598.4,165.8c0-2.3,0.6-4,1.9-5.1c1.1-0.9,2.4-1.4,3.9-1.4c1.7,0,3.1,0.6,4.2,1.7s1.6,2.7,1.6,4.6
			c0,1.6-0.2,2.9-0.7,3.8s-1.2,1.6-2.1,2.1s-1.9,0.8-3,0.8c-1.7,0-3.2-0.6-4.2-1.7S598.4,167.9,598.4,165.8z M600.5,165.8
			c0,1.6,0.3,2.8,1,3.6s1.6,1.2,2.6,1.2c1,0,1.9-0.4,2.6-1.2s1-2,1-3.6c0-1.5-0.3-2.7-1-3.5s-1.6-1.2-2.6-1.2
			c-1.1,0-1.9,0.4-2.6,1.2S600.5,164.2,600.5,165.8z"/>
		<path class="st8" d="M612.1,173l2.1,0.3c0.1,0.6,0.3,1.1,0.7,1.4c0.5,0.4,1.2,0.6,2.1,0.6c1,0,1.7-0.2,2.3-0.6s0.9-0.9,1.1-1.6
			c0.1-0.4,0.2-1.3,0.2-2.7c-0.9,1.1-2.1,1.6-3.4,1.6c-1.7,0-3-0.6-4-1.9s-1.4-2.7-1.4-4.4c0-1.2,0.2-2.3,0.6-3.3s1.1-1.8,1.9-2.3
			s1.8-0.8,2.9-0.8c1.5,0,2.7,0.6,3.6,1.8v-1.5h1.9v10.8c0,1.9-0.2,3.3-0.6,4.1s-1,1.4-1.9,1.9s-1.9,0.7-3.2,0.7
			c-1.5,0-2.7-0.3-3.6-1S612.1,174.4,612.1,173z M613.9,165.6c0,1.6,0.3,2.8,1,3.6s1.5,1.1,2.4,1.1c1,0,1.8-0.4,2.4-1.1s1-1.9,1-3.5
			c0-1.5-0.3-2.7-1-3.4s-1.5-1.2-2.4-1.2c-0.9,0-1.7,0.4-2.4,1.1S613.9,164.1,613.9,165.6z"/>
		<path class="st8" d="M625.9,157.2v-2.4h2.1v2.4H625.9z M625.9,172v-12.4h2.1V172H625.9z"/>
		<path class="st8" d="M631.2,172v-12.4h1.9v1.8c0.9-1.4,2.2-2.1,4-2.1c0.8,0,1.4,0.1,2.1,0.4s1.1,0.6,1.4,1.1s0.5,1,0.7,1.6
			c0.1,0.4,0.1,1.1,0.1,2.1v7.7h-2.1v-7.6c0-0.9-0.1-1.5-0.2-1.9s-0.5-0.8-0.9-1s-0.9-0.4-1.5-0.4c-0.9,0-1.7,0.3-2.3,0.9
			s-1,1.7-1,3.2v6.8H631.2z"/>
		<path class="st8" d="M645.1,172v-2.4h2.4v2.4H645.1z"/>
	</g>
	<g id="meta" transform="translate(0 220)">
		<g transform="translate(0 0)">
			<path class="st9" d="M12,0h126c6.6,0,12,5.4,12,12v22c0,6.6-5.4,12-12,12H12C5.4,46,0,40.6,0,34V12C0,5.4,5.4,0,12,0z"/>
			<g class="st4">
				<path class="st3" d="M18.2,19.8l4-10.1h1.2l4,10.1h-1.4l-1.2-3h-3.9l-1.2,3H18.2z M22.7,11.6l-1.5,4h3L22.7,11.6z"/>
				<path class="st3" d="M28.5,9.8h1.3v7c0,0.5,0.2,1,0.5,1.3c0.4,0.4,1.1,0.6,1.9,0.6s1.4-0.2,1.9-0.6c0.4-0.4,0.5-0.8,0.5-1.3v-7
					H36v7.1c0,0.9-0.3,1.6-0.8,2.1c-0.6,0.6-1.6,0.9-2.9,0.9c-1.3,0-2.3-0.3-2.9-0.9c-0.5-0.5-0.8-1.2-0.8-2.1V9.8z"/>
				<path class="st3" d="M37.5,9.8h8v1.1h-3.3v8.9h-1.3v-8.9h-3.3V9.8z"/>
				<path class="st3" d="M48.2,10.9c0.8-0.8,1.8-1.2,3-1.2s2.2,0.4,3,1.2c0.9,0.9,1.4,2.2,1.4,3.9s-0.5,2.9-1.4,3.9
					c-0.8,0.8-1.8,1.2-3,1.2s-2.2-0.4-3-1.2c-0.9-0.9-1.4-2.2-1.4-3.9S47.3,11.9,48.2,10.9z M49.2,11.7c-0.7,0.7-1,1.7-1,3.1
					s0.3,2.4,1,3.1c0.6,0.6,1.2,0.9,2,0.9c0.7,0,1.4-0.3,2-0.9c0.7-0.7,1-1.7,1-3.1s-0.3-2.4-1-3.1c-0.6-0.6-1.3-0.9-2-0.9
					C50.5,10.8,49.8,11.1,49.2,11.7z"/>
				<path class="st3" d="M57,14.2h6.7v0.9H57V14.2z"/>
				<path class="st3" d="M65.3,9.7h4.9c0.8,0,1.4,0.3,1.9,0.8c0.5,0.5,0.8,1.2,0.8,2.1c0,0.9-0.3,1.6-0.8,2.1
					c-0.3,0.3-0.7,0.4-1.2,0.5l2.3,4.5h-1.5l-2.1-4.3h-3v4.3h-1.3V9.7z M66.6,10.9v3.5h3.5c0.4,0,0.7-0.1,1-0.4
					c0.3-0.3,0.4-0.7,0.4-1.3c0-0.5-0.2-1-0.5-1.3c-0.3-0.3-0.7-0.5-1.1-0.5H66.6z"/>
				<path class="st3" d="M74.4,9.8h6.4v1.1h-5.1V14h4.7v1.1h-4.7v3.6h5.4v1.1h-6.7V9.8z"/>
				<path class="st3" d="M83.1,9.8h6.7v1.1h-5.4v3.3h4.2v1.1h-4.2v4.5h-1.3V9.8z"/>
				<path class="st3" d="M91.4,9.7h4.9c0.8,0,1.4,0.3,1.9,0.8c0.5,0.5,0.8,1.2,0.8,2.1c0,0.9-0.3,1.6-0.8,2.1
					c-0.3,0.3-0.7,0.4-1.2,0.5l2.3,4.5h-1.5l-2.1-4.3h-3v4.3h-1.3V9.7z M92.8,10.9v3.5h3.5c0.4,0,0.7-0.1,1-0.4
					c0.3-0.3,0.4-0.7,0.4-1.3c0-0.5-0.2-1-0.5-1.3c-0.3-0.3-0.7-0.5-1.1-0.5H92.8z"/>
				<path class="st3" d="M100.6,9.8h6.4v1.1h-5.1V14h4.7v1.1h-4.7v3.6h5.4v1.1h-6.7V9.8z"/>
				<path class="st3" d="M110,10.5c0.5-0.5,1.4-0.8,2.5-0.8c1.2,0,2.1,0.3,2.8,0.9c0.5,0.5,0.8,1.2,0.8,1.9h-1.3
					c0-0.5-0.2-0.9-0.5-1.2c-0.4-0.4-0.9-0.5-1.6-0.5c-0.8,0-1.4,0.2-1.7,0.5c-0.3,0.3-0.4,0.6-0.4,0.9s0.1,0.6,0.2,0.8
					c0.2,0.2,0.5,0.4,1.1,0.6c0.9,0.4,1.9,0.8,3,1.3c0.3,0.1,0.6,0.3,0.9,0.6c0.4,0.4,0.6,0.9,0.6,1.5c0,0.8-0.3,1.4-0.8,2
					c-0.6,0.6-1.5,0.9-2.9,0.9c-1.3,0-2.3-0.4-3-1.1c-0.5-0.5-0.8-1.2-0.8-2.2h1.3c0,0.7,0.2,1.2,0.5,1.5c0.4,0.4,1.1,0.6,2,0.6
					c0.8,0,1.4-0.2,1.8-0.6c0.3-0.3,0.5-0.6,0.5-0.9c0-0.4-0.1-0.6-0.4-0.9c-0.2-0.2-0.5-0.4-0.9-0.6c-0.4-0.2-0.9-0.4-1.5-0.7
					c-0.7-0.3-1.3-0.6-1.7-0.8c-0.3-0.1-0.6-0.3-0.8-0.5c-0.4-0.4-0.5-0.8-0.5-1.4C109.2,11.7,109.4,11.1,110,10.5z"/>
				<path class="st3" d="M118.1,9.8h1.3V14h4.8V9.8h1.3v10h-1.3v-4.7h-4.8v4.7h-1.3V9.8z"/>
			</g>
			<g class="st4">
				<path class="st8" d="M18.9,31.7c0-0.8,0.3-1.4,0.8-1.9c0.4-0.4,1-0.7,1.6-0.7c0.7,0,1.3,0.2,1.8,0.7c0.4,0.4,0.6,0.9,0.6,1.6
					c0,0.7-0.2,1.2-0.5,1.5c-0.2,0.2-0.5,0.4-0.8,0.4c0.3,0.1,0.6,0.3,0.9,0.5c0.4,0.4,0.6,0.9,0.6,1.6c0,0.7-0.2,1.4-0.7,1.8
					c-0.5,0.5-1.1,0.7-2,0.7c-0.7,0-1.3-0.2-1.8-0.7c-0.5-0.5-0.7-1-0.7-1.7v-0.4h1.2v0.4c0,0.4,0.2,0.8,0.5,1.1
					c0.2,0.2,0.5,0.4,0.9,0.4c0.4,0,0.8-0.1,1.1-0.4c0.3-0.3,0.4-0.7,0.4-1.3c0-0.5-0.1-0.8-0.4-1.1c-0.3-0.3-0.6-0.4-0.9-0.4h-0.4
					v-0.9h0.3c0.3,0,0.6-0.1,0.9-0.4c0.3-0.3,0.4-0.7,0.4-1.2c0-0.4-0.1-0.8-0.4-1.1c-0.2-0.2-0.5-0.3-0.8-0.3
					c-0.3,0-0.6,0.1-0.8,0.4C20.2,30.6,20,31,20,31.7H18.9z"/>
				<path class="st8" d="M30.1,39.7h-1v-7.6h1v0.7c0.4-0.5,0.9-0.8,1.6-0.8c0.7,0,1.3,0.2,1.7,0.7c0.5,0.5,0.8,1.3,0.8,2.3
					c0,1-0.3,1.8-0.8,2.3c-0.4,0.4-1,0.7-1.7,0.7s-1.2-0.3-1.6-0.8V39.7z M30.6,33.4c-0.3,0.3-0.5,0.7-0.5,1.2v0.7
					c0,0.5,0.2,0.9,0.6,1.3c0.3,0.3,0.6,0.5,1,0.5c0.3,0,0.6-0.1,0.9-0.4c0.4-0.4,0.6-0.9,0.6-1.7c0-0.7-0.2-1.3-0.5-1.6
					C32.4,33.1,32,33,31.7,33C31.3,33,30.9,33.1,30.6,33.4z"/>
				<path class="st8" d="M39.4,32.1v1.1c-0.1,0-0.3-0.1-0.6-0.1c-0.5,0-1,0.2-1.4,0.7c-0.4,0.4-0.6,0.8-0.8,1.2v2.9h-1v-5.7h1v1.4
					c0.2-0.3,0.4-0.5,0.6-0.7C37.7,32.3,38.5,32.1,39.4,32.1z"/>
				<path class="st8" d="M40.9,32.8c0.5-0.5,1.1-0.8,1.9-0.8c0.7,0,1.4,0.3,1.9,0.8c0.6,0.6,0.9,1.3,0.9,2.2c0,0.9-0.3,1.6-0.9,2.2
					c-0.5,0.5-1.1,0.8-1.9,0.8c-0.7,0-1.4-0.3-1.9-0.8C40.3,36.6,40,35.9,40,35C40,34.1,40.3,33.4,40.9,32.8z M41.7,33.4
					c-0.4,0.4-0.6,0.9-0.6,1.6c0,0.7,0.2,1.2,0.6,1.6c0.3,0.3,0.7,0.5,1.1,0.5s0.8-0.2,1.1-0.5c0.4-0.4,0.6-0.9,0.6-1.6
					c0-0.7-0.2-1.2-0.6-1.6c-0.3-0.3-0.6-0.4-1-0.4S42,33.1,41.7,33.4z"/>
				<path class="st8" d="M46.2,32.2h1.1l1.8,4.5l1.8-4.5h1.1l-2.4,5.8h-1L46.2,32.2z"/>
				<path class="st8" d="M53.1,29.2h1v1.3h-1V29.2z M53.1,32.2h1v5.7h-1V32.2z"/>
				<path class="st8" d="M59.7,29.2h1v8.7h-1v-0.7c-0.4,0.5-0.9,0.8-1.5,0.8c-0.7,0-1.3-0.2-1.7-0.6c-0.6-0.6-0.9-1.4-0.9-2.3
					c0-1,0.3-1.8,0.8-2.3c0.4-0.4,1-0.7,1.6-0.7c0.7,0,1.3,0.3,1.7,0.9V29.2z M57.3,33.3c-0.3,0.3-0.5,0.9-0.5,1.7
					c0,0.7,0.2,1.3,0.6,1.7c0.2,0.2,0.5,0.4,0.9,0.4c0.4,0,0.7-0.1,1-0.4c0.4-0.4,0.6-0.9,0.6-1.6s-0.2-1.3-0.6-1.7
					c-0.3-0.3-0.6-0.4-1-0.4C57.8,32.9,57.5,33.1,57.3,33.3z"/>
				<path class="st8" d="M62.9,32.8c0.5-0.5,1.1-0.7,1.8-0.7c0.7,0,1.3,0.3,1.8,0.8c0.5,0.5,0.7,1.2,0.7,2.2h-4.1
					c0,0.7,0.2,1.2,0.5,1.6c0.3,0.3,0.7,0.5,1.2,0.5c0.5,0,0.8-0.1,1-0.3c0.2-0.2,0.4-0.5,0.4-0.8h1.1c-0.1,0.6-0.4,1.1-0.7,1.4
					c-0.4,0.4-1,0.7-1.8,0.7c-0.8,0-1.5-0.3-2-0.8C62.3,36.6,62,35.9,62,35S62.3,33.3,62.9,32.8z M63.7,33.3
					c-0.2,0.2-0.4,0.5-0.5,0.9h2.9c0-0.3-0.1-0.6-0.4-0.9c-0.2-0.2-0.6-0.4-1-0.4C64.3,32.9,63.9,33.1,63.7,33.3z"/>
				<path class="st8" d="M72.4,32.1v1.1c-0.1,0-0.3-0.1-0.6-0.1c-0.5,0-1,0.2-1.4,0.7c-0.4,0.4-0.6,0.8-0.8,1.2v2.9h-1v-5.7h1v1.4
					c0.2-0.3,0.4-0.5,0.6-0.7C70.7,32.3,71.5,32.1,72.4,32.1z"/>
				<path class="st8" d="M73.7,32.7c0.4-0.4,1-0.6,1.7-0.6c0.8,0,1.4,0.2,1.8,0.6c0.3,0.3,0.5,0.7,0.5,1.1h-1c0-0.2-0.1-0.4-0.2-0.5
					c-0.2-0.2-0.6-0.3-1.1-0.3c-0.3,0-0.6,0.1-0.8,0.3c-0.2,0.2-0.3,0.4-0.3,0.6c0,0.1,0.1,0.3,0.2,0.4c0.1,0.1,0.6,0.3,1.3,0.5
					c0.4,0.1,0.8,0.2,1.1,0.3c0.3,0.1,0.5,0.2,0.6,0.4c0.3,0.3,0.4,0.6,0.4,1c0,0.4-0.2,0.8-0.5,1.1c-0.4,0.4-1,0.6-1.9,0.6
					c-0.8,0-1.5-0.2-1.9-0.6C73.2,37,73,36.6,73,36.1h1c0,0.3,0.1,0.5,0.3,0.7c0.2,0.2,0.6,0.4,1.1,0.4c0.6,0,1-0.1,1.2-0.3
					c0.1-0.1,0.2-0.3,0.2-0.5c0-0.1-0.1-0.3-0.3-0.5c-0.1-0.1-0.4-0.2-0.7-0.3c-0.6-0.1-1.1-0.3-1.4-0.4c-0.4-0.1-0.6-0.2-0.8-0.4
					c-0.3-0.3-0.5-0.6-0.5-1C73.2,33.3,73.4,33,73.7,32.7z"/>
			</g>
		</g>
		<g transform="translate(166 0)">
			<path class="st9" d="M12,0h126c6.6,0,12,5.4,12,12v22c0,6.6-5.4,12-12,12H12C5.4,46,0,40.6,0,34V12C0,5.4,5.4,0,12,0z"/>
			<g class="st4">
				<path class="st3" d="M19,9.8h3.5c1.2,0,2.2,0.4,3,1.2c0.9,0.9,1.3,2.1,1.3,3.9c0,1.6-0.4,2.9-1.3,3.8c-0.7,0.7-1.7,1.1-2.9,1.1
					H19V9.8z M20.3,10.9v7.8h2.1c0.7,0,1.3-0.2,1.8-0.7c0.7-0.7,1.1-1.8,1.1-3.1c0-1.4-0.4-2.5-1.1-3.2c-0.5-0.5-1.2-0.8-1.9-0.8
					H20.3z"/>
				<path class="st3" d="M28.7,9.8h6.4v1.1h-5.1V14h4.7v1.1h-4.7v3.6h5.4v1.1h-6.7V9.8z"/>
				<path class="st3" d="M38.2,10.5c0.5-0.5,1.4-0.8,2.5-0.8c1.2,0,2.1,0.3,2.8,0.9c0.5,0.5,0.8,1.2,0.8,1.9h-1.3
					c0-0.5-0.2-0.9-0.5-1.2c-0.4-0.4-0.9-0.5-1.6-0.5c-0.8,0-1.4,0.2-1.7,0.5c-0.3,0.3-0.4,0.6-0.4,0.9s0.1,0.6,0.2,0.8
					c0.2,0.2,0.5,0.4,1.1,0.6c0.9,0.4,1.9,0.8,3,1.3c0.3,0.1,0.6,0.3,0.9,0.6c0.4,0.4,0.6,0.9,0.6,1.5c0,0.8-0.3,1.4-0.8,2
					c-0.6,0.6-1.5,0.9-2.9,0.9c-1.3,0-2.3-0.4-3-1.1c-0.5-0.5-0.8-1.2-0.8-2.2h1.3c0,0.7,0.2,1.2,0.5,1.5c0.4,0.4,1.1,0.6,2,0.6
					c0.8,0,1.4-0.2,1.8-0.6c0.3-0.3,0.5-0.6,0.5-0.9c0-0.4-0.1-0.6-0.4-0.9c-0.2-0.2-0.5-0.4-0.9-0.6c-0.4-0.2-0.9-0.4-1.5-0.7
					c-0.7-0.3-1.3-0.6-1.7-0.8c-0.3-0.1-0.6-0.3-0.8-0.5c-0.4-0.4-0.5-0.8-0.5-1.4C37.3,11.7,37.6,11.1,38.2,10.5z"/>
				<path class="st3" d="M46.3,9.8h1.3v4.6l4.6-4.6h1.7l-4,4l4,6h-1.6L49,14.7l-1.3,1.3v3.8h-1.3V9.8z"/>
				<path class="st3" d="M54.6,9.8h8v1.1h-3.3v8.9H58v-8.9h-3.3V9.8z"/>
				<path class="st3" d="M65.3,10.9c0.8-0.8,1.8-1.2,3-1.2s2.2,0.4,3,1.2c0.9,0.9,1.4,2.2,1.4,3.9s-0.5,2.9-1.4,3.9
					c-0.8,0.8-1.8,1.2-3,1.2s-2.2-0.4-3-1.2c-0.9-0.9-1.4-2.2-1.4-3.9S64.4,11.9,65.3,10.9z M66.3,11.7c-0.7,0.7-1,1.7-1,3.1
					s0.3,2.4,1,3.1c0.6,0.6,1.2,0.9,2,0.9c0.7,0,1.4-0.3,2-0.9c0.7-0.7,1-1.7,1-3.1s-0.3-2.4-1-3.1c-0.6-0.6-1.3-0.9-2-0.9
					C67.6,10.8,66.9,11.1,66.3,11.7z"/>
				<path class="st3" d="M74.6,9.8h4.7c0.9,0,1.6,0.3,2.1,0.8c0.5,0.5,0.8,1.3,0.8,2.3c0,1-0.3,1.7-0.8,2.2
					c-0.5,0.5-1.2,0.8-2.2,0.8h-3.3v3.9h-1.3V9.8z M75.9,10.9v3.9h3c0.5,0,1-0.2,1.3-0.5c0.4-0.4,0.5-0.8,0.5-1.4
					c0-0.7-0.2-1.2-0.5-1.5c-0.4-0.4-0.8-0.5-1.3-0.5H75.9z"/>
			</g>
			<g class="st4">
				<path class="st8" d="M19,29.2h5.8v1h-4.7V33h3.7v1h-3.7v3.9H19V29.2z"/>
				<path class="st8" d="M26,29.2h1v8.7h-1V29.2z"/>
				<path class="st8" d="M29.4,32.8c0.5-0.5,1.1-0.7,1.8-0.7c0.7,0,1.3,0.3,1.8,0.8c0.5,0.5,0.7,1.2,0.7,2.2h-4.1
					c0,0.7,0.2,1.2,0.5,1.6c0.3,0.3,0.7,0.5,1.2,0.5c0.5,0,0.8-0.1,1-0.3c0.2-0.2,0.4-0.5,0.4-0.8h1.1c-0.1,0.6-0.4,1.1-0.7,1.4
					c-0.4,0.4-1,0.7-1.8,0.7c-0.8,0-1.5-0.3-2-0.8c-0.5-0.5-0.8-1.3-0.8-2.2S28.8,33.3,29.4,32.8z M30.1,33.3
					c-0.2,0.2-0.4,0.5-0.5,0.9h2.9c0-0.3-0.1-0.6-0.4-0.9c-0.2-0.2-0.6-0.4-1-0.4C30.7,32.9,30.4,33.1,30.1,33.3z"/>
				<path class="st8" d="M35.6,30.2h1v2h1.7V33h-1.7v3.3c0,0.2,0.1,0.4,0.3,0.6C37,37,37.2,37,37.6,37c0.5,0,0.9-0.1,1.3-0.4v1
					c-0.4,0.2-0.8,0.3-1.2,0.3c-0.7,0-1.2-0.2-1.5-0.5c-0.3-0.3-0.5-0.7-0.5-1.1V33h-1.2v-0.8h1.2V30.2z"/>
				<path class="st8" d="M43.6,32.8h1.2v1.1h-1.2V32.8z"/>
				<path class="st8" d="M50.3,29.2h4.1c0.7,0,1.4,0.2,1.8,0.7c0.5,0.5,0.7,1.1,0.7,2c0,0.8-0.2,1.5-0.7,1.9
					c-0.4,0.4-1.1,0.7-1.9,0.7h-2.9v3.4h-1.2V29.2z M51.5,30.1v3.4h2.6c0.5,0,0.8-0.1,1.1-0.4c0.3-0.3,0.5-0.7,0.5-1.2
					c0-0.6-0.1-1-0.4-1.3c-0.3-0.3-0.7-0.5-1.2-0.5H51.5z"/>
				<path class="st8" d="M57.7,32.1h1.1l1.8,4.5l1.8-4.5h1.1L61,38.2c-0.2,0.5-0.4,0.9-0.6,1.1c-0.3,0.3-0.6,0.4-1,0.4
					c-0.5,0-0.8-0.1-0.9-0.2v-1c0.3,0.1,0.6,0.2,0.9,0.2c0.2,0,0.3-0.1,0.5-0.2c0.1-0.1,0.2-0.3,0.3-0.6L57.7,32.1z"/>
				<path class="st8" d="M65,30.2h1v2h1.7V33H66v3.3c0,0.2,0.1,0.4,0.3,0.6c0.1,0.1,0.4,0.2,0.7,0.2c0.5,0,0.9-0.1,1.3-0.4v1
					c-0.4,0.2-0.8,0.3-1.2,0.3c-0.7,0-1.2-0.2-1.5-0.5c-0.3-0.3-0.5-0.7-0.5-1.1V33h-1.2v-0.8H65V30.2z"/>
				<path class="st8" d="M69.1,29.2h1v4c0.6-0.7,1.2-1.1,1.9-1.1c0.7,0,1.2,0.2,1.6,0.5c0.3,0.3,0.5,0.7,0.5,1.2v4.1h-1V34
					c0-0.4-0.1-0.7-0.4-0.9c-0.2-0.2-0.4-0.3-0.7-0.3c-0.4,0-0.7,0.2-1,0.5c-0.4,0.4-0.7,0.9-0.9,1.6v2.9h-1V29.2z"/>
				<path class="st8" d="M76.2,32.8c0.5-0.5,1.1-0.8,1.9-0.8c0.7,0,1.4,0.3,1.9,0.8c0.6,0.6,0.9,1.3,0.9,2.2c0,0.9-0.3,1.6-0.9,2.2
					c-0.5,0.5-1.1,0.8-1.9,0.8c-0.7,0-1.4-0.3-1.9-0.8c-0.6-0.6-0.9-1.3-0.9-2.2C75.4,34.1,75.7,33.4,76.2,32.8z M77.1,33.4
					c-0.4,0.4-0.6,0.9-0.6,1.6c0,0.7,0.2,1.2,0.6,1.6c0.3,0.3,0.7,0.5,1.1,0.5s0.8-0.2,1.1-0.5c0.4-0.4,0.6-0.9,0.6-1.6
					c0-0.7-0.2-1.2-0.6-1.6c-0.3-0.3-0.6-0.4-1-0.4S77.4,33.1,77.1,33.4z"/>
				<path class="st8" d="M83.2,37.8h-1v-5.7h1v1c0.6-0.7,1.3-1.1,1.9-1.1c0.7,0,1.2,0.2,1.6,0.6c0.3,0.3,0.4,0.6,0.4,1v4.2h-1v-3.9
					c0-0.3-0.1-0.6-0.3-0.8s-0.5-0.3-0.9-0.3c-0.3,0-0.7,0.2-1,0.5c-0.5,0.5-0.8,1-0.8,1.6V37.8z"/>
			</g>
		</g>
		<g transform="translate(332 0)">
			<path class="st9" d="M12,0h126c6.6,0,12,5.4,12,12v22c0,6.6-5.4,12-12,12H12C5.4,46,0,40.6,0,34V12C0,5.4,5.4,0,12,0z"/>
			<g class="st4">
				<path class="st3" d="M18.4,9.8h8v1.1h-3.3v8.9h-1.3v-8.9h-3.3V9.8z"/>
				<path class="st3" d="M28.1,9.7H33c0.8,0,1.4,0.3,1.9,0.8c0.5,0.5,0.8,1.2,0.8,2.1c0,0.9-0.3,1.6-0.8,2.1
					c-0.3,0.3-0.7,0.4-1.2,0.5l2.3,4.5h-1.5l-2.1-4.3h-3v4.3h-1.3V9.7z M29.4,10.9v3.5h3.5c0.4,0,0.7-0.1,1-0.4
					c0.3-0.3,0.4-0.7,0.4-1.3c0-0.5-0.2-1-0.5-1.3c-0.3-0.3-0.7-0.5-1.1-0.5H29.4z"/>
				<path class="st3" d="M36.4,19.8l4-10.1h1.2l4,10.1h-1.4l-1.2-3H39l-1.2,3H36.4z M41,11.6l-1.5,4h3L41,11.6z"/>
				<path class="st3" d="M45.8,9.8h1.4l2.9,4.6L53,9.8h1.4l-3.6,5.6v4.5h-1.3v-4.5L45.8,9.8z"/>
			</g>
			<g class="st4">
				<path class="st8" d="M20.8,30.5h0.9V33h2.5v0.8h-2.5v2.5h-0.9v-2.5h-2.5V33h2.5V30.5z"/>
				<path class="st8" d="M29.8,32.6c0.4-0.4,0.9-0.6,1.6-0.6c0.8,0,1.5,0.2,1.8,0.6c0.3,0.3,0.5,0.7,0.5,1.2V37
					c0,0.4,0.1,0.7,0.4,0.9H33c-0.1-0.1-0.2-0.4-0.2-0.7c-0.5,0.5-1.2,0.8-1.9,0.8c-0.6,0-1.1-0.2-1.5-0.5c-0.3-0.3-0.5-0.7-0.5-1.1
					c0-0.5,0.2-0.9,0.5-1.2c0.3-0.3,0.8-0.6,1.4-0.7c0.4-0.1,0.8-0.2,1.1-0.3c0.4-0.1,0.7-0.2,0.9-0.3c0-0.3-0.1-0.5-0.3-0.7
					S32,33,31.6,33c-0.5,0-0.8,0.1-1,0.3c-0.1,0.1-0.2,0.3-0.3,0.6h-1.1C29.3,33.4,29.5,33,29.8,32.6z M32.8,35
					c-0.2,0.1-0.4,0.1-0.6,0.2c-0.6,0.1-1,0.2-1.3,0.3c-0.3,0.1-0.5,0.2-0.6,0.3c-0.2,0.2-0.3,0.4-0.3,0.6c0,0.2,0.1,0.4,0.3,0.6
					c0.1,0.1,0.3,0.2,0.7,0.2c0.6,0,1-0.2,1.4-0.6c0.2-0.2,0.4-0.4,0.4-0.5V35z"/>
				<path class="st8" d="M35.5,29.2h1v8.7h-1V29.2z"/>
				<path class="st8" d="M38.9,32.8c0.5-0.5,1.1-0.7,1.8-0.7c0.7,0,1.3,0.3,1.8,0.8c0.5,0.5,0.7,1.2,0.7,2.2h-4.1
					c0,0.7,0.2,1.2,0.5,1.6c0.3,0.3,0.7,0.5,1.2,0.5c0.5,0,0.8-0.1,1-0.3c0.2-0.2,0.4-0.5,0.4-0.8h1.1c-0.1,0.6-0.4,1.1-0.7,1.4
					c-0.4,0.4-1,0.7-1.8,0.7c-0.8,0-1.5-0.3-2-0.8C38.3,36.6,38,35.9,38,35S38.3,33.3,38.9,32.8z M39.6,33.3
					c-0.2,0.2-0.4,0.5-0.5,0.9h2.9c0-0.3-0.1-0.6-0.4-0.9c-0.2-0.2-0.6-0.4-1-0.4C40.2,32.9,39.9,33.1,39.6,33.3z"/>
				<path class="st8" d="M48.4,32.1v1.1c-0.1,0-0.3-0.1-0.6-0.1c-0.5,0-1,0.2-1.4,0.7c-0.4,0.4-0.6,0.8-0.8,1.2v2.9h-1v-5.7h1v1.4
					c0.2-0.3,0.4-0.5,0.6-0.7C46.7,32.3,47.5,32.1,48.4,32.1z"/>
				<path class="st8" d="M49.6,30.2h1v2h1.7V33h-1.7v3.3c0,0.2,0.1,0.4,0.3,0.6C51,37,51.3,37,51.6,37c0.5,0,0.9-0.1,1.3-0.4v1
					c-0.4,0.2-0.8,0.3-1.2,0.3c-0.7,0-1.2-0.2-1.5-0.5c-0.3-0.3-0.5-0.7-0.5-1.1V33h-1.2v-0.8h1.2V30.2z"/>
				<path class="st8" d="M58.2,32.7c0.4-0.4,1-0.6,1.7-0.6c0.8,0,1.4,0.2,1.8,0.6c0.3,0.3,0.5,0.7,0.5,1.1h-1c0-0.2-0.1-0.4-0.2-0.5
					c-0.2-0.2-0.6-0.3-1.1-0.3c-0.3,0-0.6,0.1-0.8,0.3c-0.2,0.2-0.3,0.4-0.3,0.6c0,0.1,0.1,0.3,0.2,0.4c0.1,0.1,0.6,0.3,1.3,0.5
					c0.4,0.1,0.8,0.2,1.1,0.3c0.3,0.1,0.5,0.2,0.6,0.4c0.3,0.3,0.4,0.6,0.4,1c0,0.4-0.2,0.8-0.5,1.1c-0.4,0.4-1,0.6-1.9,0.6
					c-0.8,0-1.5-0.2-1.9-0.6c-0.3-0.3-0.5-0.8-0.5-1.3h1c0,0.3,0.1,0.5,0.3,0.7c0.2,0.2,0.6,0.4,1.1,0.4c0.6,0,1-0.1,1.2-0.3
					c0.1-0.1,0.2-0.3,0.2-0.5c0-0.1-0.1-0.3-0.3-0.5c-0.1-0.1-0.4-0.2-0.7-0.3c-0.6-0.1-1.1-0.3-1.4-0.4c-0.4-0.1-0.6-0.2-0.8-0.4
					c-0.3-0.3-0.5-0.6-0.5-1C57.7,33.3,57.9,33,58.2,32.7z"/>
				<path class="st8" d="M64.4,32.8c0.5-0.5,1.1-0.8,1.9-0.8c0.7,0,1.4,0.3,1.9,0.8c0.6,0.6,0.9,1.3,0.9,2.2c0,0.9-0.3,1.6-0.9,2.2
					c-0.5,0.5-1.1,0.8-1.9,0.8c-0.7,0-1.4-0.3-1.9-0.8c-0.6-0.6-0.9-1.3-0.9-2.2C63.5,34.1,63.8,33.4,64.4,32.8z M65.2,33.4
					c-0.4,0.4-0.6,0.9-0.6,1.6c0,0.7,0.2,1.2,0.6,1.6c0.3,0.3,0.7,0.5,1.1,0.5s0.8-0.2,1.1-0.5c0.4-0.4,0.6-0.9,0.6-1.6
					c0-0.7-0.2-1.2-0.6-1.6c-0.3-0.3-0.6-0.4-1-0.4S65.5,33.1,65.2,33.4z"/>
				<path class="st8" d="M70.3,32.2h1V36c0,0.4,0.1,0.7,0.3,0.9c0.2,0.2,0.4,0.3,0.7,0.3c0.4,0,0.8-0.2,1.2-0.5
					c0.5-0.5,0.8-1,0.8-1.6v-2.9h1v5.7h-1v-1c-0.5,0.7-1.2,1.1-2,1.1c-0.7,0-1.2-0.2-1.5-0.5s-0.5-0.7-0.5-1.2V32.2z"/>
				<path class="st8" d="M77.8,37.8h-1v-5.7h1v1c0.6-0.7,1.3-1.1,1.9-1.1c0.7,0,1.2,0.2,1.6,0.6c0.3,0.3,0.4,0.6,0.4,1v4.2h-1v-3.9
					c0-0.3-0.1-0.6-0.3-0.8s-0.5-0.3-0.9-0.3c-0.3,0-0.7,0.2-1,0.5c-0.5,0.5-0.8,1-0.8,1.6V37.8z"/>
				<path class="st8" d="M87.3,29.2h1v8.7h-1v-0.7c-0.4,0.5-0.9,0.8-1.5,0.8c-0.7,0-1.3-0.2-1.7-0.6c-0.6-0.6-0.9-1.4-0.9-2.3
					c0-1,0.3-1.8,0.8-2.3c0.4-0.4,1-0.7,1.6-0.7c0.7,0,1.3,0.3,1.7,0.9V29.2z M84.8,33.3c-0.3,0.3-0.5,0.9-0.5,1.7
					c0,0.7,0.2,1.3,0.6,1.7c0.2,0.2,0.5,0.4,0.9,0.4c0.4,0,0.7-0.1,1-0.4c0.4-0.4,0.6-0.9,0.6-1.6s-0.2-1.3-0.6-1.7
					c-0.3-0.3-0.6-0.4-1-0.4C85.4,32.9,85.1,33.1,84.8,33.3z"/>
				<path class="st8" d="M90.2,32.7c0.4-0.4,1-0.6,1.7-0.6c0.8,0,1.4,0.2,1.8,0.6c0.3,0.3,0.5,0.7,0.5,1.1h-1c0-0.2-0.1-0.4-0.2-0.5
					c-0.2-0.2-0.6-0.3-1.1-0.3c-0.3,0-0.6,0.1-0.8,0.3c-0.2,0.2-0.3,0.4-0.3,0.6c0,0.1,0.1,0.3,0.2,0.4c0.1,0.1,0.6,0.3,1.3,0.5
					c0.4,0.1,0.8,0.2,1.1,0.3c0.3,0.1,0.5,0.2,0.6,0.4c0.3,0.3,0.4,0.6,0.4,1c0,0.4-0.2,0.8-0.5,1.1c-0.4,0.4-1,0.6-1.9,0.6
					c-0.8,0-1.5-0.2-1.9-0.6c-0.3-0.3-0.5-0.8-0.5-1.3h1c0,0.3,0.1,0.5,0.3,0.7c0.2,0.2,0.6,0.4,1.1,0.4c0.6,0,1-0.1,1.2-0.3
					c0.1-0.1,0.2-0.3,0.2-0.5c0-0.1-0.1-0.3-0.3-0.5c-0.1-0.1-0.4-0.2-0.7-0.3c-0.6-0.1-1.1-0.3-1.4-0.4c-0.4-0.1-0.6-0.2-0.8-0.4
					c-0.3-0.3-0.5-0.6-0.5-1C89.8,33.3,89.9,33,90.2,32.7z"/>
			</g>
		</g>
	</g>
</g>
<g id="ring-proof" transform="translate(760 40)">
	<circle class="st10" cx="120" cy="118" r="104"/>
	<path class="st11" d="M120,14c57.4-0.9,104.7,44.9,105.6,102.4c0.4,24.6-8,48.6-23.6,67.6"/>
	<text transform="matrix(1 0 0 1 71.8316 104.9451)" class="st6 st12 st13">121</text>
	<g class="st4">
		<path class="st8" d="M111.1,137.1v-2.2h5.8v5.3c-0.6,0.5-1.4,1-2.4,1.4c-1.1,0.4-2.1,0.6-3.2,0.6c-1.4,0-2.6-0.3-3.6-0.9
			c-1-0.6-1.8-1.4-2.3-2.5c-0.5-1.1-0.8-2.3-0.8-3.5c0-1.4,0.3-2.6,0.9-3.7c0.6-1.1,1.4-1.9,2.5-2.5c0.8-0.4,1.9-0.7,3.2-0.7
			c1.6,0,2.9,0.3,3.8,1c0.9,0.7,1.5,1.6,1.8,2.9l-2.7,0.5c-0.2-0.6-0.5-1.2-1-1.5s-1.2-0.6-1.9-0.6c-1.2,0-2.1,0.4-2.8,1.1
			c-0.7,0.7-1,1.8-1,3.3c0,1.6,0.3,2.7,1,3.5c0.7,0.8,1.6,1.2,2.7,1.2c0.6,0,1.1-0.1,1.7-0.3s1-0.5,1.4-0.8v-1.7H111.1z"/>
		<path class="st8" d="M119.3,128.8h5.3c1,0,1.8,0,2.3,0.1c0.5,0.1,1,0.3,1.4,0.5c0.4,0.3,0.7,0.6,1,1.1c0.3,0.5,0.4,1,0.4,1.5
			c0,0.6-0.2,1.2-0.5,1.7c-0.3,0.5-0.8,0.9-1.4,1.2c0.8,0.2,1.4,0.6,1.9,1.2c0.4,0.6,0.6,1.2,0.6,2c0,0.6-0.1,1.2-0.4,1.8
			s-0.7,1-1.1,1.4c-0.5,0.3-1.1,0.5-1.8,0.6c-0.4,0-1.5,0.1-3.2,0.1h-4.5V128.8z M122,131v3.1h1.7c1,0,1.7,0,1.9,0
			c0.5-0.1,0.8-0.2,1.1-0.5c0.3-0.3,0.4-0.6,0.4-1c0-0.4-0.1-0.7-0.3-1c-0.2-0.3-0.6-0.4-1-0.5c-0.3,0-1,0-2.3,0H122z M122,136.2
			v3.5h2.5c1,0,1.6,0,1.8-0.1c0.4-0.1,0.7-0.2,1-0.5s0.4-0.7,0.4-1.1c0-0.4-0.1-0.7-0.3-1s-0.5-0.5-0.8-0.6
			c-0.4-0.1-1.2-0.2-2.4-0.2H122z"/>
		<path class="st8" d="M68.5,164.1v-13.2h5.6c1.4,0,2.4,0.1,3.1,0.4c0.6,0.2,1.2,0.7,1.5,1.3c0.4,0.6,0.6,1.3,0.6,2.1
			c0,1-0.3,1.8-0.9,2.5c-0.6,0.6-1.5,1.1-2.6,1.2c0.6,0.3,1.1,0.7,1.4,1.1c0.4,0.4,0.9,1.1,1.5,2.1l1.6,2.6h-3.2l-1.9-2.9
			c-0.7-1-1.2-1.7-1.4-1.9c-0.3-0.3-0.5-0.5-0.8-0.5c-0.3-0.1-0.7-0.1-1.3-0.1h-0.5v5.5H68.5z M71.2,156.5h2c1.3,0,2.1-0.1,2.4-0.2
			c0.3-0.1,0.6-0.3,0.7-0.6c0.2-0.3,0.3-0.6,0.3-1c0-0.4-0.1-0.8-0.4-1.1s-0.6-0.4-1-0.5c-0.2,0-0.9,0-1.9,0h-2.1V156.5z"/>
		<path class="st8" d="M81.9,164.1v-13.2h9.8v2.2h-7.1v2.9h6.6v2.2h-6.6v3.6h7.4v2.2H81.9z"/>
		<path class="st8" d="M94.1,164.1v-13.2h4l2.4,9l2.4-9h4v13.2h-2.5v-10.4l-2.6,10.4h-2.6l-2.6-10.4v10.4H94.1z"/>
		<path class="st8" d="M121.5,164.1h-2.9l-1.2-3h-5.3l-1.1,3h-2.8l5.1-13.2h2.8L121.5,164.1z M116.6,158.9l-1.8-4.9l-1.8,4.9H116.6z
			"/>
		<path class="st8" d="M122.8,164.1v-13.2h2.7v13.2H122.8z"/>
		<path class="st8" d="M128,164.1v-13.2h2.6l5.4,8.8v-8.8h2.5v13.2h-2.7l-5.3-8.6v8.6H128z"/>
		<path class="st8" d="M141.3,164.1v-13.2h2.7v13.2H141.3z"/>
		<path class="st8" d="M146.5,164.1v-13.2h2.6l5.4,8.8v-8.8h2.5v13.2h-2.7l-5.3-8.6v8.6H146.5z"/>
		<path class="st8" d="M166,159.3v-2.2h5.8v5.3c-0.6,0.5-1.4,1-2.4,1.4c-1.1,0.4-2.1,0.6-3.2,0.6c-1.4,0-2.6-0.3-3.6-0.9
			c-1-0.6-1.8-1.4-2.3-2.5c-0.5-1.1-0.8-2.3-0.8-3.5c0-1.4,0.3-2.6,0.9-3.7c0.6-1.1,1.4-1.9,2.5-2.5c0.8-0.4,1.9-0.7,3.2-0.7
			c1.6,0,2.9,0.3,3.8,1c0.9,0.7,1.5,1.6,1.8,2.9l-2.7,0.5c-0.2-0.6-0.5-1.2-1-1.5c-0.5-0.4-1.2-0.6-1.9-0.6c-1.2,0-2.1,0.4-2.8,1.1
			c-0.7,0.7-1,1.8-1,3.3c0,1.6,0.3,2.7,1,3.5c0.7,0.8,1.6,1.2,2.7,1.2c0.6,0,1.1-0.1,1.7-0.3c0.6-0.2,1-0.5,1.4-0.8v-1.7H166z"/>
	</g>
	<g class="st4">
		<path class="st6" d="M-9.3,277l-3.1-12.9h2.7l1.9,8.9l2.4-8.9h3.1l2.3,9l2-9h2.6L1.4,277h-2.8l-2.6-9.6l-2.6,9.6H-9.3z"/>
		<path class="st6" d="M5.8,266.4v-2.3h2.5v2.3H5.8z M5.8,277v-9.3h2.5v9.3H5.8z"/>
		<path class="st6" d="M15.1,267.7v2h-1.7v3.8c0,0.8,0,1.2,0,1.3s0.1,0.2,0.2,0.3s0.3,0.1,0.4,0.1c0.2,0,0.6-0.1,1-0.2l0.2,1.9
			c-0.6,0.2-1.2,0.4-2,0.4c-0.4,0-0.8-0.1-1.2-0.2c-0.4-0.1-0.6-0.3-0.8-0.6c-0.2-0.2-0.3-0.6-0.3-1c-0.1-0.3-0.1-0.9-0.1-1.7v-4.1
			H9.8v-2h1.1v-1.9l2.5-1.4v3.3H15.1z"/>
		<path class="st6" d="M19.3,264.1v4.7c0.8-0.9,1.7-1.4,2.9-1.4c0.6,0,1.1,0.1,1.5,0.3s0.8,0.5,1,0.8s0.4,0.7,0.5,1.1s0.1,1,0.1,1.9
			v5.5h-2.5v-4.9c0-1,0-1.6-0.1-1.9s-0.3-0.5-0.5-0.6s-0.5-0.2-0.9-0.2c-0.4,0-0.8,0.1-1.1,0.3s-0.6,0.5-0.7,0.9s-0.2,1-0.2,1.8v4.7
			h-2.5v-12.9H19.3z"/>
		<path class="st6" d="M32.1,272.8l2.5-0.2c0.2,0.8,0.5,1.5,0.9,1.9s1.1,0.6,1.9,0.6c0.8,0,1.5-0.2,1.9-0.5s0.6-0.8,0.6-1.2
			c0-0.3-0.1-0.6-0.3-0.8s-0.5-0.4-0.9-0.6c-0.3-0.1-1-0.3-2.1-0.6c-1.4-0.3-2.4-0.8-2.9-1.3c-0.8-0.7-1.2-1.6-1.2-2.6
			c0-0.7,0.2-1.3,0.6-1.8c0.4-0.6,0.9-1,1.6-1.3s1.5-0.4,2.5-0.4c1.6,0,2.8,0.4,3.7,1.1s1.2,1.7,1.3,2.8l-2.6,0.1
			c-0.1-0.7-0.4-1.1-0.7-1.4c-0.4-0.3-0.9-0.4-1.6-0.4c-0.8,0-1.3,0.2-1.8,0.5c-0.3,0.2-0.4,0.5-0.4,0.8c0,0.3,0.1,0.6,0.4,0.8
			c0.3,0.3,1.1,0.6,2.4,0.9s2.2,0.6,2.8,0.9c0.6,0.3,1.1,0.8,1.4,1.3c0.3,0.6,0.5,1.2,0.5,2.1c0,0.7-0.2,1.4-0.6,2.1s-1,1.1-1.7,1.4
			c-0.8,0.3-1.7,0.5-2.8,0.5c-1.6,0-2.9-0.4-3.8-1.1S32.3,274.2,32.1,272.8z"/>
		<path class="st6" d="M47.3,264.1v4.7c0.8-0.9,1.7-1.4,2.9-1.4c0.6,0,1.1,0.1,1.5,0.3s0.8,0.5,1,0.8s0.4,0.7,0.5,1.1s0.1,1,0.1,1.9
			v5.5h-2.5v-4.9c0-1,0-1.6-0.1-1.9s-0.3-0.5-0.5-0.6s-0.5-0.2-0.9-0.2c-0.4,0-0.8,0.1-1.1,0.3s-0.6,0.5-0.7,0.9s-0.2,1-0.2,1.8v4.7
			h-2.5v-12.9H47.3z"/>
		<path class="st6" d="M61.2,274l2.5,0.4c-0.3,0.9-0.8,1.6-1.5,2.1s-1.5,0.7-2.6,0.7c-1.6,0-2.8-0.5-3.6-1.6
			c-0.6-0.8-0.9-1.9-0.9-3.2c0-1.5,0.4-2.8,1.2-3.6s1.8-1.3,3.1-1.3c1.4,0,2.5,0.5,3.3,1.4c0.8,0.9,1.2,2.3,1.2,4.2h-6.2
			c0,0.7,0.2,1.3,0.6,1.7c0.4,0.4,0.9,0.6,1.4,0.6c0.4,0,0.7-0.1,1-0.3S61.1,274.5,61.2,274z M61.3,271.5c0-0.7-0.2-1.3-0.6-1.6
			c-0.4-0.4-0.8-0.6-1.3-0.6c-0.5,0-1,0.2-1.3,0.6s-0.5,0.9-0.5,1.6H61.3z"/>
		<path class="st6" d="M73.9,270.4l-2.4,0.4c-0.1-0.5-0.3-0.9-0.6-1.1s-0.7-0.4-1.1-0.4c-0.6,0-1.1,0.2-1.5,0.6s-0.5,1.1-0.5,2.1
			c0,1.1,0.2,1.9,0.6,2.3s0.9,0.7,1.5,0.7c0.5,0,0.9-0.1,1.2-0.4s0.5-0.7,0.6-1.4l2.4,0.4c-0.3,1.1-0.7,2-1.5,2.5s-1.7,0.9-2.9,0.9
			c-1.4,0-2.5-0.4-3.3-1.3s-1.2-2.1-1.2-3.6c0-1.5,0.4-2.7,1.2-3.6c0.8-0.9,1.9-1.3,3.3-1.3c1.1,0,2,0.2,2.7,0.7
			S73.6,269.4,73.9,270.4z"/>
		<path class="st6" d="M77.7,270.5l-2.2-0.4c0.3-0.9,0.7-1.6,1.3-2s1.5-0.7,2.7-0.7c1.1,0,1.9,0.1,2.5,0.4c0.5,0.3,0.9,0.6,1.1,1
			s0.3,1.1,0.3,2.2l0,2.9c0,0.8,0,1.4,0.1,1.8s0.2,0.8,0.4,1.3h-2.4c-0.1-0.2-0.1-0.4-0.2-0.7c0-0.1-0.1-0.2-0.1-0.3
			c-0.4,0.4-0.9,0.7-1.4,0.9s-1,0.3-1.5,0.3c-1,0-1.7-0.3-2.3-0.8s-0.8-1.2-0.8-2c0-0.5,0.1-1,0.4-1.4c0.3-0.4,0.6-0.7,1.1-0.9
			c0.5-0.2,1.1-0.4,2-0.6c1.2-0.2,2-0.4,2.4-0.6v-0.2c0-0.5-0.1-0.8-0.4-1c-0.2-0.2-0.7-0.3-1.3-0.3c-0.4,0-0.8,0.1-1,0.3
			C78,269.8,77.8,270.1,77.7,270.5z M81,272.5c-0.3,0.1-0.8,0.2-1.5,0.4s-1.1,0.3-1.3,0.4c-0.3,0.2-0.5,0.5-0.5,0.9
			c0,0.3,0.1,0.6,0.4,0.9s0.6,0.4,1,0.4c0.4,0,0.9-0.1,1.3-0.4c0.3-0.2,0.5-0.5,0.6-0.8c0.1-0.2,0.1-0.6,0.1-1.2V272.5z"/>
		<path class="st6" d="M94.3,277h-2.5v-4.8c0-1-0.1-1.7-0.2-2s-0.3-0.5-0.5-0.7s-0.5-0.2-0.9-0.2c-0.4,0-0.8,0.1-1.2,0.4
			s-0.6,0.5-0.7,0.9s-0.2,1.1-0.2,2.1v4.2h-2.5v-9.3h2.3v1.4c0.8-1.1,1.8-1.6,3.1-1.6c0.5,0,1,0.1,1.5,0.3s0.8,0.4,1,0.8
			s0.4,0.7,0.5,1s0.1,0.9,0.1,1.7V277z"/>
		<path class="st6" d="M101.8,277v-12.9h4.2c1.6,0,2.6,0.1,3.1,0.2c0.7,0.2,1.4,0.6,1.9,1.3s0.7,1.5,0.7,2.5c0,0.8-0.1,1.5-0.4,2
			s-0.7,1-1.1,1.3c-0.4,0.3-0.9,0.5-1.3,0.6c-0.6,0.1-1.5,0.2-2.7,0.2h-1.7v4.9H101.8z M104.4,266.3v3.7h1.4c1,0,1.7-0.1,2.1-0.2
			s0.6-0.3,0.8-0.6s0.3-0.6,0.3-1c0-0.5-0.1-0.9-0.4-1.2s-0.6-0.5-1-0.6c-0.3-0.1-0.9-0.1-1.9-0.1H104.4z"/>
		<path class="st6" d="M116.2,277h-2.5v-9.3h2.3v1.3c0.4-0.6,0.7-1,1.1-1.2s0.7-0.3,1.1-0.3c0.6,0,1.1,0.2,1.6,0.5l-0.8,2.2
			c-0.4-0.3-0.8-0.4-1.2-0.4c-0.3,0-0.6,0.1-0.9,0.3c-0.2,0.2-0.4,0.5-0.6,1s-0.2,1.5-0.2,3.1V277z"/>
		<path class="st6" d="M120.3,272.2c0-0.8,0.2-1.6,0.6-2.4s1-1.4,1.7-1.8s1.6-0.6,2.5-0.6c1.4,0,2.6,0.5,3.5,1.4
			c0.9,0.9,1.4,2.1,1.4,3.5c0,1.4-0.5,2.6-1.4,3.5s-2.1,1.4-3.4,1.4c-0.9,0-1.7-0.2-2.4-0.6s-1.4-1-1.8-1.7
			C120.5,274.2,120.3,273.3,120.3,272.2z M122.8,272.3c0,0.9,0.2,1.6,0.7,2.1s1,0.7,1.6,0.7s1.2-0.2,1.6-0.7s0.7-1.2,0.7-2.1
			c0-0.9-0.2-1.6-0.7-2.1s-1-0.7-1.6-0.7s-1.2,0.2-1.6,0.7S122.8,271.4,122.8,272.3z"/>
		<path class="st6" d="M136.8,264.1h4.8c1.1,0,1.9,0.1,2.5,0.2c0.8,0.2,1.4,0.6,1.9,1.2s0.9,1.3,1.2,2.1c0.3,0.8,0.4,1.8,0.4,3
			c0,1.1-0.1,2-0.4,2.7c-0.3,0.9-0.8,1.7-1.4,2.3c-0.5,0.4-1.1,0.8-1.8,1c-0.6,0.2-1.3,0.3-2.3,0.3h-4.9V264.1z M139.4,266.3v8.5
			h1.9c0.7,0,1.3,0,1.6-0.1c0.4-0.1,0.8-0.3,1-0.5s0.5-0.7,0.7-1.2c0.2-0.6,0.3-1.4,0.3-2.4s-0.1-1.8-0.3-2.3s-0.4-0.9-0.7-1.2
			s-0.7-0.5-1.2-0.6c-0.4-0.1-1.1-0.1-2.1-0.1H139.4z"/>
		<path class="st6" d="M149.9,277v-12.9h2.5l5.3,8.6v-8.6h2.4V277h-2.6l-5.2-8.4v8.4H149.9z"/>
		<path class="st6" d="M162.2,272.8l2.5-0.2c0.2,0.8,0.5,1.5,0.9,1.9s1.1,0.6,1.9,0.6c0.8,0,1.5-0.2,1.9-0.5s0.6-0.8,0.6-1.2
			c0-0.3-0.1-0.6-0.3-0.8s-0.5-0.4-0.9-0.6c-0.3-0.1-1-0.3-2.1-0.6c-1.4-0.3-2.4-0.8-2.9-1.3c-0.8-0.7-1.2-1.6-1.2-2.6
			c0-0.7,0.2-1.3,0.6-1.8c0.4-0.6,0.9-1,1.6-1.3s1.5-0.4,2.5-0.4c1.6,0,2.8,0.4,3.7,1.1s1.2,1.7,1.3,2.8l-2.6,0.1
			c-0.1-0.7-0.4-1.1-0.7-1.4c-0.4-0.3-0.9-0.4-1.6-0.4c-0.8,0-1.3,0.2-1.8,0.5c-0.3,0.2-0.4,0.5-0.4,0.8c0,0.3,0.1,0.6,0.4,0.8
			c0.3,0.3,1.1,0.6,2.4,0.9s2.2,0.6,2.8,0.9c0.6,0.3,1.1,0.8,1.4,1.3c0.3,0.6,0.5,1.2,0.5,2.1c0,0.7-0.2,1.4-0.6,2.1s-1,1.1-1.7,1.4
			c-0.8,0.3-1.7,0.5-2.8,0.5c-1.6,0-2.9-0.4-3.8-1.1S162.4,274.2,162.2,272.8z"/>
		<path class="st6" d="M179.2,272.8l2.5-0.2c0.2,0.8,0.5,1.5,0.9,1.9s1.1,0.6,1.9,0.6c0.8,0,1.5-0.2,1.9-0.5s0.6-0.8,0.6-1.2
			c0-0.3-0.1-0.6-0.3-0.8s-0.5-0.4-0.9-0.6c-0.3-0.1-1-0.3-2.1-0.6c-1.4-0.3-2.4-0.8-2.9-1.3c-0.8-0.7-1.2-1.6-1.2-2.6
			c0-0.7,0.2-1.3,0.6-1.8c0.4-0.6,0.9-1,1.6-1.3s1.5-0.4,2.5-0.4c1.6,0,2.8,0.4,3.7,1.1s1.2,1.7,1.3,2.8l-2.6,0.1
			c-0.1-0.7-0.4-1.1-0.7-1.4c-0.4-0.3-0.9-0.4-1.6-0.4c-0.8,0-1.3,0.2-1.8,0.5c-0.3,0.2-0.4,0.5-0.4,0.8c0,0.3,0.1,0.6,0.4,0.8
			c0.3,0.3,1.1,0.6,2.4,0.9s2.2,0.6,2.8,0.9c0.6,0.3,1.1,0.8,1.4,1.3c0.3,0.6,0.5,1.2,0.5,2.1c0,0.7-0.2,1.4-0.6,2.1s-1,1.1-1.7,1.4
			c-0.8,0.3-1.7,0.5-2.8,0.5c-1.6,0-2.9-0.4-3.8-1.1S179.4,274.2,179.2,272.8z"/>
		<path class="st6" d="M198,277v-1.4c-0.3,0.5-0.8,0.9-1.3,1.2s-1.1,0.4-1.8,0.4c-0.6,0-1.2-0.1-1.7-0.4s-0.9-0.7-1.1-1.2
			s-0.3-1.2-0.3-2.1v-5.9h2.5v4.3c0,1.3,0,2.1,0.1,2.4c0.1,0.3,0.3,0.5,0.5,0.7c0.2,0.2,0.5,0.3,0.9,0.3c0.4,0,0.8-0.1,1.1-0.3
			c0.3-0.2,0.6-0.5,0.7-0.9c0.1-0.3,0.2-1.2,0.2-2.5v-3.9h2.5v9.3H198z"/>
		<path class="st6" d="M202.8,267.7h2.3v1.4c0.3-0.5,0.7-0.8,1.2-1.1s1.1-0.4,1.7-0.4c1.1,0,2,0.4,2.8,1.3s1.1,2,1.1,3.6
			c0,1.6-0.4,2.8-1.1,3.6c-0.8,0.9-1.7,1.3-2.8,1.3c-0.5,0-1-0.1-1.4-0.3s-0.9-0.6-1.3-1.1v4.7h-2.5V267.7z M205.2,272.2
			c0,1,0.2,1.8,0.6,2.3c0.4,0.5,0.9,0.8,1.5,0.8c0.6,0,1.1-0.2,1.4-0.7c0.4-0.5,0.6-1.2,0.6-2.3c0-1-0.2-1.7-0.6-2.2
			s-0.9-0.7-1.5-0.7c-0.6,0-1.1,0.2-1.5,0.7C205.4,270.6,205.2,271.3,205.2,272.2z"/>
		<path class="st6" d="M213.8,267.7h2.3v1.4c0.3-0.5,0.7-0.8,1.2-1.1s1.1-0.4,1.7-0.4c1.1,0,2,0.4,2.8,1.3s1.1,2,1.1,3.6
			c0,1.6-0.4,2.8-1.1,3.6c-0.8,0.9-1.7,1.3-2.8,1.3c-0.5,0-1-0.1-1.4-0.3s-0.9-0.6-1.3-1.1v4.7h-2.5V267.7z M216.2,272.2
			c0,1,0.2,1.8,0.6,2.3c0.4,0.5,0.9,0.8,1.5,0.8c0.6,0,1.1-0.2,1.4-0.7c0.4-0.5,0.6-1.2,0.6-2.3c0-1-0.2-1.7-0.6-2.2
			s-0.9-0.7-1.5-0.7c-0.6,0-1.1,0.2-1.5,0.7C216.4,270.6,216.2,271.3,216.2,272.2z"/>
		<path class="st6" d="M224.2,272.2c0-0.8,0.2-1.6,0.6-2.4s1-1.4,1.7-1.8s1.6-0.6,2.5-0.6c1.4,0,2.6,0.5,3.5,1.4
			c0.9,0.9,1.4,2.1,1.4,3.5c0,1.4-0.5,2.6-1.4,3.5s-2.1,1.4-3.4,1.4c-0.9,0-1.7-0.2-2.4-0.6s-1.4-1-1.8-1.7
			C224.5,274.2,224.2,273.3,224.2,272.2z M226.8,272.3c0,0.9,0.2,1.6,0.7,2.1s1,0.7,1.6,0.7s1.2-0.2,1.6-0.7s0.7-1.2,0.7-2.1
			c0-0.9-0.2-1.6-0.7-2.1s-1-0.7-1.6-0.7s-1.2,0.2-1.6,0.7S226.8,271.4,226.8,272.3z"/>
		<path class="st6" d="M238.2,277h-2.5v-9.3h2.3v1.3c0.4-0.6,0.7-1,1.1-1.2s0.7-0.3,1.1-0.3c0.6,0,1.1,0.2,1.6,0.5l-0.8,2.2
			c-0.4-0.3-0.8-0.4-1.2-0.4c-0.3,0-0.6,0.1-0.9,0.3c-0.2,0.2-0.4,0.5-0.6,1s-0.2,1.5-0.2,3.1V277z"/>
		<path class="st6" d="M247.1,267.7v2h-1.7v3.8c0,0.8,0,1.2,0,1.3s0.1,0.2,0.2,0.3s0.3,0.1,0.4,0.1c0.2,0,0.6-0.1,1-0.2l0.2,1.9
			c-0.6,0.2-1.2,0.4-2,0.4c-0.4,0-0.8-0.1-1.2-0.2c-0.4-0.1-0.6-0.3-0.8-0.6c-0.2-0.2-0.3-0.6-0.3-1c-0.1-0.3-0.1-0.9-0.1-1.7v-4.1
			h-1.1v-2h1.1v-1.9l2.5-1.4v3.3H247.1z"/>
	</g>
</g>
</svg>
